<svg width="1729" height="370" viewBox="0 0 1729 370" fill="none" xmlns="http://www.w3.org/2000/svg">
<rect x="1" width="1728" height="369" fill="url(#paint0_linear_80_28)"/>
<path d="M706.5 312V369.296L1018 369.206V315.5C1018 305.133 1011.38 297.667 1003.39 292.612C996.275 288.11 988.075 285.521 982.5 284.5H749.5C734.917 284.5 724.955 287.953 718.323 292.612C709.675 298.687 706.689 306.812 706.5 312Z" fill="url(#paint1_linear_80_28)"/>
<path d="M749.5 284.5H982.5C988.075 285.521 996.275 288.11 1003.39 292.612C1007.54 285.741 1015.55 268.6 1014.42 255C1010.24 250.694 1005.57 247.661 1001 245.614C997.713 244.143 994.474 243.181 991.5 242.622C989.331 242.214 987.304 242.021 985.5 242C982.627 241.986 979.622 241.972 976.5 241.958C910.478 241.659 791.742 241.303 749.5 241.823C745.411 241.874 742.038 241.932 739.5 242C738.825 242.018 738.158 242.048 737.5 242.09C731.89 242.448 726.906 243.662 722.5 245.474C718.548 247.098 715.06 249.204 712 251.603C712.4 265.285 716.382 284.643 718.323 292.612C724.955 287.953 734.917 284.5 749.5 284.5Z" fill="url(#paint2_linear_80_28)"/>
<path d="M1018 315.5V369.206L1029 369.202V297.5C1029 282.477 1025.62 271.262 1020.59 263C1018.73 259.944 1016.64 257.292 1014.42 255C1015.55 268.6 1007.54 285.741 1003.39 292.612C1011.38 297.667 1018 305.133 1018 315.5Z" fill="url(#paint3_linear_80_28)"/>
<path d="M706.5 369.296V312C706.689 306.812 709.675 298.687 718.323 292.612C716.382 284.643 712.4 265.285 712 251.603C709.984 253.184 708.154 254.892 706.5 256.675C699.208 264.533 695.333 273.833 694 280V369.299L706.5 369.296Z" fill="url(#paint4_linear_80_28)"/>
<path d="M1091.5 369.184V311.5C1092.92 307.44 1096.02 301.683 1101 296.195C1099.5 289.964 1094.7 275.9 1087.5 269.5C1080.3 263.1 1067.75 257.5 1062.38 255.5C1056.23 263.156 1052.8 271.691 1051.5 277.5L1041.5 369.199L1091.5 369.184Z" fill="url(#paint5_linear_80_28)"/>
<path d="M1051.5 277.5C1052.8 271.691 1056.23 263.156 1062.38 255.5C1069.64 246.462 1080.69 238.65 1096.5 238C1116.68 237.171 1190.07 235.339 1255.5 233.791C1251.9 219.223 1239.33 216.527 1233.5 217C1192.17 218 1104.1 220.2 1082.5 221C1060.9 221.8 1052.83 240.333 1051.5 249.5V277.5Z" fill="url(#paint6_linear_80_28)"/>
<path d="M1091.5 311.5V369.184L1390.5 369.098C1390.59 367.167 1390.68 365.063 1390.78 362.816C1391.37 347.649 1391.88 321.505 1390.5 302.5C1388.9 280.5 1364.5 274.333 1352.5 274C1291.33 275.5 1162.3 278.8 1135.5 280C1119.58 280.713 1108.28 288.165 1101 296.195C1096.02 301.683 1092.92 307.44 1091.5 311.5Z" fill="url(#paint7_linear_80_28)"/>
<path d="M1454 369.079V293.5C1455.31 289.292 1458.5 283.309 1464 277.683C1461.67 271.122 1455.6 256.8 1450 252C1444.4 247.2 1431.34 241 1425.5 238.5C1419.6 244.628 1416.54 250.967 1415.5 255.5L1405 369.094L1454 369.079Z" fill="url(#paint8_linear_80_28)"/>
<path d="M1333 232C1352.67 236.796 1392.2 251.01 1393 269.5C1393.74 286.589 1391.97 335.392 1390.78 362.816C1390.69 365.206 1390.59 367.324 1390.5 369.098L1405 369.094L1415.5 255.5C1416.54 250.967 1419.6 244.628 1425.5 238.5C1434.79 228.855 1451.08 219.734 1477.5 219C1485.57 218.776 1496.01 218.502 1508 218.197C1504.4 210.754 1494.83 207.964 1490.5 207.5C1451.67 208 1367.7 209.2 1342.5 210C1325.86 210.528 1315.13 217.099 1309 223.582C1305.85 226.917 1303.91 230.228 1303 232.683C1314.01 232.43 1324.16 232.199 1333 232Z" fill="url(#paint9_linear_80_28)"/>
<path d="M1400.21 175C1400.27 179.623 1400.12 177.46 1400 175C1398.79 175 1397.46 175.002 1396 175.007C1378.34 175.068 1343.37 175.522 1317.5 177C1300.33 177.981 1288.68 184.777 1281.5 191.809C1286.67 194.706 1297.6 201.2 1300 204C1303 207.5 1306.5 214.677 1309 223.582C1315.13 217.099 1325.86 210.528 1342.5 210C1367.7 209.2 1451.67 208 1490.5 207.5C1494.83 207.964 1504.4 210.754 1508 218.197C1510.28 218.139 1512.61 218.079 1515 218.019L1513.5 207.5C1509.5 181.5 1485.17 175 1473.5 175H1443.25H1413H1400.21Z" fill="url(#paint10_linear_80_28)"/>
<path d="M1271 233.426C1282.17 233.164 1292.95 232.914 1303 232.683C1303.91 230.228 1305.85 226.917 1309 223.582C1306.5 214.677 1303 207.5 1300 204C1297.6 201.2 1286.67 194.706 1281.5 191.809C1276.97 196.246 1274.23 200.776 1273 204L1271 233.426Z" fill="url(#paint11_linear_80_28)"/>
<path d="M1366.5 139.5C1335 140 1265.5 141.2 1239.5 142C1223.96 142.478 1214.2 148.337 1208.5 154.647C1213.17 156.431 1223.2 161.3 1226 166.5C1228.8 171.7 1230.8 178.333 1231.45 181C1236.57 175.507 1245.06 170.018 1257.5 169.5C1281.5 168.5 1374.5 166.5 1382.5 166.5C1388.9 166.5 1394.17 172.172 1396 175.007C1397.46 175.002 1398.79 175 1400 175H1400.21C1400.18 173.045 1400.12 169.875 1400 165C1399.6 148.6 1377.5 141.167 1366.5 139.5Z" fill="#980303"/>
<path d="M1202 166.5L1200 185.5C1206.9 185.756 1216.56 186.831 1226 189.165C1226.88 186.974 1228.67 183.986 1231.45 181C1230.8 178.333 1228.8 171.7 1226 166.5C1223.2 161.3 1213.17 156.431 1208.5 154.647C1204.66 158.895 1202.67 163.348 1202 166.5Z" fill="#98070A"/>
<path d="M1413 146.5V175H1443.25C1443.74 172.338 1445.28 168.608 1448.33 165C1446.63 160.667 1442.2 150.9 1438 146.5C1433.8 142.1 1423.33 138 1418.63 136.5C1415.08 140.085 1413.43 143.877 1413 146.5Z" fill="#98070A"/>
<path d="M1566.5 121C1535.67 122.333 1468.2 125.3 1445 126.5C1431.67 127.19 1423.42 131.656 1418.63 136.5C1423.33 138 1433.8 142.1 1438 146.5C1442.2 150.9 1446.63 160.667 1448.33 165C1453.1 159.346 1461.58 153.988 1475.5 153.5C1498.3 152.7 1561 150.167 1589.5 149C1592.33 148.963 1598.5 150.251 1600.5 155.695L1603 155.5C1599.8 130.3 1577.33 122 1566.5 121Z" fill="#9B0303"/>
<path d="M1473.5 175C1485.17 175 1509.5 181.5 1513.5 207.5L1515 218.019C1519.35 217.91 1523.86 217.797 1528.5 217.681V185.5C1528.5 181.918 1527.74 174.997 1533.5 169.002C1538.19 164.117 1547.21 159.847 1564.5 158.5L1600.5 155.695C1598.5 150.251 1592.33 148.963 1589.5 149C1561 150.167 1498.3 152.7 1475.5 153.5C1461.58 153.988 1453.1 159.346 1448.33 165C1445.28 168.608 1443.74 172.338 1443.25 175H1473.5Z" fill="#7B0101"/>
<path d="M1528.5 217.681C1539.89 217.398 1552.06 217.1 1564.5 216.798C1565.27 213.438 1567.45 208.459 1571.5 203.96C1570.83 200.473 1567.9 191.9 1561.5 185.5C1555.1 179.1 1540.17 171.835 1533.5 169.002C1527.74 174.997 1528.5 181.918 1528.5 185.5V217.681Z" fill="#740209"/>
<path d="M1610 155.5H1603L1600.5 155.695L1564.5 158.5C1547.21 159.847 1538.19 164.117 1533.5 169.002C1540.17 171.835 1555.1 179.1 1561.5 185.5C1567.9 191.9 1570.83 200.473 1571.5 203.96C1576.21 198.729 1583.46 194.145 1594 193.5C1613.6 192.3 1691.5 187.667 1728 185.5V155.5C1725.5 154.167 1719.2 151.4 1714 151C1710.17 150.705 1673.2 152.381 1641 153.951C1629.48 154.513 1618.56 155.061 1610 155.5Z" fill="url(#paint12_linear_80_28)"/>
<path d="M1502.5 262C1533.7 261.2 1651.5 259 1706.5 258C1712.83 259 1726 262.7 1728 269.5V234C1712.8 219.2 1691.33 214.5 1682.5 214C1654.6 214.647 1607.93 215.744 1564.5 216.798C1552.06 217.1 1539.89 217.398 1528.5 217.681C1523.86 217.797 1519.35 217.91 1515 218.019C1512.61 218.079 1510.28 218.139 1508 218.197C1496.01 218.502 1485.57 218.776 1477.5 219C1451.08 219.734 1434.79 228.855 1425.5 238.5C1431.34 241 1444.4 247.2 1450 252C1455.6 256.8 1461.67 271.122 1464 277.683C1471.79 269.717 1484.21 262.469 1502.5 262Z" fill="url(#paint13_linear_80_28)"/>
<path d="M1682.5 214C1691.33 214.5 1712.8 219.2 1728 234V185.5C1691.5 187.667 1613.6 192.3 1594 193.5C1583.46 194.145 1576.21 198.729 1571.5 203.96C1567.45 208.459 1565.27 213.438 1564.5 216.798C1607.93 215.744 1654.6 214.647 1682.5 214Z" fill="#7B0101"/>
<path d="M1454 369.079L1728 369V269.5C1726 262.7 1712.83 259 1706.5 258C1651.5 259 1533.7 261.2 1502.5 262C1484.21 262.469 1471.79 269.717 1464 277.683C1458.5 283.309 1455.31 289.292 1454 293.5V369.079Z" fill="url(#paint14_linear_80_28)"/>
<path d="M1714 151C1719.2 151.4 1725.5 154.167 1728 155.5V132.5C1711.67 133.167 1676.2 134.7 1665 135.5C1657.14 136.062 1650.13 142.059 1645.5 147.596C1643.53 149.948 1641.99 152.217 1641 153.951C1673.2 152.381 1710.17 150.705 1714 151Z" fill="#7B0101"/>
<path d="M1610 125V155.5C1618.56 155.061 1629.48 154.513 1641 153.951C1641.99 152.217 1643.53 149.948 1645.5 147.596C1645.5 146.231 1644.2 141.3 1639 132.5C1633.8 123.7 1622.17 118.459 1617 116.938C1613.31 119.856 1611.04 122.86 1610 125Z" fill="#98070A"/>
<path d="M1728 103.5C1709.67 104.5 1667.5 106.7 1645.5 107.5C1632.06 107.989 1622.79 112.358 1617 116.938C1622.17 118.459 1633.8 123.7 1639 132.5C1644.2 141.3 1645.5 146.231 1645.5 147.596C1650.13 142.059 1657.14 136.062 1665 135.5C1676.2 134.7 1711.67 133.167 1728 132.5V103.5Z" fill="#B2080B"/>
<path d="M1150 150C1117.83 150.667 1046.4 152.2 1018 153C998.435 153.551 987.713 161.411 982.5 168.863C986.667 168.242 996.2 168.1 1001 172.5C1005.8 176.9 1010.08 186 1011.62 190C1016.16 185.27 1022.65 181.393 1031.5 181C1049.5 180.2 1131 178.667 1169.5 178C1172.17 177.964 1178.6 179.453 1183 185.696L1188.5 185.5V175C1188.5 159.8 1162.83 152 1150 150Z" fill="#AE0202"/>
<path d="M1014.42 255C1016.64 257.292 1018.73 259.944 1020.59 263C1020.73 253.167 1021.5 229.9 1023.5 215.5C1025.5 201.1 1050.25 192.5 1062.38 190L1183 185.696C1178.6 179.453 1172.17 177.964 1169.5 178C1131 178.667 1049.5 180.2 1031.5 181C1022.65 181.393 1016.16 185.27 1011.62 190C1006.94 194.888 1004.34 200.688 1003.39 204.5L1001 245.614C1005.57 247.661 1010.24 250.694 1014.42 255Z" fill="#710303"/>
<path d="M978.5 178L976.5 204.5C981.333 208.248 991.1 221.119 991.5 242.622C994.474 243.181 997.713 244.143 1001 245.614L1003.39 204.5C1004.34 200.688 1006.94 194.888 1011.62 190C1010.08 186 1005.8 176.9 1001 172.5C996.2 168.1 986.667 168.242 982.5 168.863C980.146 172.229 978.915 175.511 978.5 178Z" fill="#98070A"/>
<path d="M760 197.5L749.5 203.5C741.1 208.3 738 217.167 737.5 221V242.09C738.158 242.048 738.825 242.018 739.5 242C742.038 241.932 745.411 241.874 749.5 241.823C751.833 236.549 760.6 225.9 777 225.5C793.4 225.1 904.167 225.333 957.5 225.5C961.833 226.639 971.7 231.525 976.5 241.958C979.622 241.972 982.627 241.986 985.5 242C987.304 242.021 989.331 242.214 991.5 242.622C991.1 221.119 981.333 208.248 976.5 204.5C974.5 202.5 968.333 199 965.5 197.5C961.5 195.243 956.167 194.893 954 195C897.333 194.5 782.6 193.5 777 193.5C775.178 193.5 773.096 193.782 771 194.209C766.653 195.094 762.249 196.6 760 197.5Z" fill="#8C0116"/>
<path d="M777 225.5C760.6 225.9 751.833 236.549 749.5 241.823C791.742 241.303 910.478 241.659 976.5 241.958C971.7 231.525 961.833 226.639 957.5 225.5C904.167 225.333 793.4 225.1 777 225.5Z" fill="url(#paint15_linear_80_28)"/>
<path d="M777 193.5C782.6 193.5 897.333 194.5 954 195C953.459 191.575 951.612 188.97 949.41 187.064C946.726 184.741 943.514 183.458 941.5 183H791.5C785.032 183 780.3 184.794 777 187.064C773.565 189.426 771.68 192.303 771 194.209C773.096 193.782 775.178 193.5 777 193.5Z" fill="#720303"/>
<path d="M941.5 156H791.5C785.073 156 779.562 157.956 775 160.796C771 169.033 774.667 181.74 777 187.064C780.3 184.794 785.032 183 791.5 183H941.5C943.514 183.458 946.726 184.741 949.41 187.064C951.67 182.709 955.97 171.7 955.094 162.5C950.411 159.135 945.131 156.983 941.5 156Z" fill="#AE0202"/>
<path d="M965.5 197.5V180C965.5 172.355 960.729 166.549 955.094 162.5C955.97 171.7 951.67 182.709 949.41 187.064C951.612 188.97 953.459 191.575 954 195C956.167 194.893 961.5 195.243 965.5 197.5Z" fill="#67010F"/>
<path d="M760 178V197.5C762.249 196.6 766.653 195.094 771 194.209C771.68 192.303 773.565 189.426 777 187.064C774.667 181.74 771 169.033 775 160.796C767.07 165.734 762.01 173.345 760 178Z" fill="#67010F"/>
<path d="M749.5 203.5L748 181.5C747.446 173.37 743.029 167.274 737.5 162.887C729.1 168.397 719 182.373 715 188.672C719.104 192.716 722.314 198.129 722.5 205C722.9 219.8 722.667 238.149 722.5 245.474C726.906 243.662 731.89 242.448 737.5 242.09V221C738 217.167 741.1 208.3 749.5 203.5Z" fill="#67010F"/>
<path d="M532.438 185.5C532.438 185.552 532.437 185.602 532.436 185.651C537.207 185.738 542.621 185.858 548.5 186.004C551.333 183.503 559.6 178.1 570 176.5C580.4 174.9 661.333 178.167 700.5 180C704.339 181.161 710.264 184.005 715 188.672C719 182.373 729.1 168.397 737.5 162.887C731.06 157.777 723.112 154.986 718 154C688.333 152.833 621.6 150.3 592 149.5C562.4 148.7 548.333 164.167 545 172V185.5H532.438Z" fill="#AE0202"/>
<path d="M706.5 256.675C708.154 254.892 709.984 253.184 712 251.603C715.06 249.204 718.548 247.098 722.5 245.474C722.667 238.149 722.9 219.8 722.5 205C722.314 198.129 719.104 192.716 715 188.672C710.264 184.005 704.339 181.161 700.5 180C661.333 178.167 580.4 174.9 570 176.5C559.6 178.1 551.333 183.503 548.5 186.004C585.367 186.924 640.507 188.88 670 190C677.107 190.487 688.365 193.646 696.5 201.771C702.292 207.555 706.5 215.856 706.5 227.5V256.675Z" fill="#710303"/>
<path d="M479 231.751C480.667 226.834 488.8 216.9 508 216.5C527.2 216.1 611 218.333 650.5 219.5C656.068 220.715 664.981 224.475 671.032 231.634C671.855 228.089 674.8 219.7 680 214.5C685.2 209.3 693.167 203.847 696.5 201.771C688.365 193.646 677.107 190.487 670 190C640.507 188.88 585.367 186.924 548.5 186.004C542.621 185.858 537.207 185.738 532.436 185.651C532.399 187.937 532.193 187.086 532.017 185.644C526.818 185.551 522.4 185.5 519 185.5C514.218 185.5 509.893 186.064 506 187.036C488.724 191.348 479.948 203.699 477.5 210.5L476 231.634C476.995 231.672 477.995 231.712 479 231.751Z" fill="#870404"/>
<path d="M681.5 369.303L694 369.299V280C695.333 273.833 699.208 264.533 706.5 256.675V227.5C706.5 215.856 702.292 207.555 696.5 201.771C693.167 203.847 685.2 209.3 680 214.5C674.8 219.7 671.855 228.089 671.032 231.634C674.942 236.26 677.657 242.305 677.5 250C677.1 269.6 677.094 309.833 677.141 327.5C678.914 343.532 680.502 359.071 681.5 369.303Z" fill="#660624"/>
<path d="M621.5 238C632.191 240.065 651.153 246.346 662.042 257.5C666.091 261.648 669.024 266.47 670 272C672.061 283.679 674.766 306.032 677.141 327.5C677.094 309.833 677.1 269.6 677.5 250C677.657 242.305 674.942 236.26 671.032 231.634C664.981 224.475 656.068 220.715 650.5 219.5C611 218.333 527.2 216.1 508 216.5C488.8 216.9 480.667 226.834 479 231.751C527.727 233.67 586.935 236.359 621.5 238Z" fill="url(#paint16_linear_80_28)"/>
<path d="M342 297.5C343.333 289.833 352.5 274.5 378.5 274.5C404.5 274.5 529 278.167 588 280C596.837 280.106 611.523 283.137 621.5 292.612C623 287.408 627.2 276 632 272C638 267 645.084 262 662.042 257.5C651.153 246.346 632.191 240.065 621.5 238C586.935 236.359 527.727 233.67 479 231.751C477.995 231.712 476.995 231.672 476 231.634C471.212 231.447 466.534 231.267 462 231.098C450.14 230.655 439.269 230.278 430 230C421.223 229.736 413.883 229.56 408.5 229.5C372.9 229.1 349.333 254.333 342 267V297.5Z" fill="url(#paint17_linear_80_28)"/>
<path d="M632 315.5C634 343.5 635.167 363.044 635.5 369.316L681.5 369.303C680.502 359.071 678.914 343.532 677.141 327.5C674.766 306.032 672.061 283.679 670 272C669.024 266.47 666.091 261.648 662.042 257.5C645.084 262 638 267 632 272C627.2 276 623 287.408 621.5 292.612C627.141 297.969 631.278 305.387 632 315.5Z" fill="url(#paint18_linear_80_28)"/>
<path d="M342 297.5V369.401L635.5 369.316C635.167 363.044 634 343.5 632 315.5C631.278 305.387 627.141 297.969 621.5 292.612C611.523 283.137 596.837 280.106 588 280C529 278.167 404.5 274.5 378.5 274.5C352.5 274.5 343.333 289.833 342 297.5Z" fill="url(#paint19_linear_80_28)"/>
<path d="M430 230C439.269 230.278 450.14 230.655 462 231.098V214.5C461.243 204.815 457.076 197.449 451.5 191.951C449.333 192.968 443.5 196.2 437.5 201C431.5 205.8 426.667 216.425 425 221.138C427.447 223.641 429.294 226.588 430 230Z" fill="#660624"/>
<path d="M462 214.5V231.098C466.534 231.267 471.212 231.447 476 231.634L477.5 210.5C479.948 203.699 488.724 191.348 506 187.036C506 182.672 503.229 179.167 499.581 176.5C495.228 173.318 489.627 171.329 486 170.5C447.833 168.833 369.2 165.5 360 165.5C350.8 165.5 342.5 171.32 339.5 174.23L421.5 178C429.375 178.933 442.338 182.918 451.5 191.951C457.076 197.449 461.243 204.815 462 214.5Z" fill="#710303"/>
<path d="M506 187.036C509.893 186.064 514.218 185.5 519 185.5C522.4 185.5 526.818 185.551 532.017 185.644C532.011 185.597 532.006 185.549 532 185.5H532.438C532.463 183.413 532.36 178.956 532 170.5C531.642 162.093 527.139 155.906 521.315 151.5C514.766 153.1 504.097 168.833 499.581 176.5C503.229 179.167 506 182.672 506 187.036Z" fill="#67010F"/>
<path d="M334.5 161V174L339.5 174.23C342.5 171.32 350.8 165.5 360 165.5C369.2 165.5 447.833 168.833 486 170.5C489.627 171.329 495.228 173.318 499.581 176.5C504.097 168.833 514.766 153.1 521.315 151.5C514.115 146.053 504.897 143.329 499 142.5C467.167 141.5 397.8 139.4 375 139C352.2 138.6 338.5 153.5 334.5 161Z" fill="#AE0202"/>
<path d="M334.5 174H321H290.5H272C234.8 174 223.5 190 222.5 198V216.992L228 217.141C229.167 213.76 236.1 207 254.5 207C272.9 207 362.167 209.333 404.5 210.5C409.795 211.676 419.126 215.129 425 221.138C426.667 216.425 431.5 205.8 437.5 201C443.5 196.2 449.333 192.968 451.5 191.951C442.338 182.918 429.375 178.933 421.5 178L339.5 174.23L334.5 174Z" fill="url(#paint20_linear_80_28)"/>
<path d="M318.5 249.5C320.5 268.7 327 337.437 330 369.405L342 369.401V297.5V267C349.333 254.333 372.9 229.1 408.5 229.5C413.883 229.56 421.223 229.736 430 230C429.294 226.588 427.447 223.641 425 221.138C419.126 215.129 409.795 211.676 404.5 210.5C362.167 209.333 272.9 207 254.5 207C236.1 207 229.167 213.76 228 217.141C239.911 217.463 250.666 217.757 259.5 218C274.119 219.941 300.388 226.28 312.347 238C315.794 241.378 318.052 245.204 318.5 249.5Z" fill="url(#paint21_linear_80_28)"/>
<path d="M280.5 295C282.097 314.967 281.17 352.876 280.503 369.419L330 369.405C327 337.437 320.5 268.7 318.5 249.5C318.052 245.204 315.794 241.378 312.347 238C306.898 237.667 294.2 239.5 287 249.5C279.8 259.5 274 272.343 272 277.515C276.578 282.047 279.925 287.813 280.5 295Z" fill="url(#paint22_linear_80_28)"/>
<path d="M1 281.5C2.83333 273.833 11.3 258.5 30.5 258.5C49.7 258.5 181.167 262.167 244.5 264C251.761 265.281 263.838 269.436 272 277.515C274 272.343 279.8 259.5 287 249.5C294.2 239.5 306.898 237.667 312.347 238C300.388 226.28 274.119 219.941 259.5 218C250.666 217.757 239.911 217.463 228 217.141L222.5 216.992C217.162 216.847 211.627 216.698 205.958 216.546C205.72 218.031 205.5 216.533 205.5 216.533C194.032 216.225 182.025 215.904 170 215.586C128.906 214.498 87.6137 213.439 67 213C29.4 212.2 7.33333 234.333 1 245.5V281.5Z" fill="url(#paint23_linear_80_28)"/>
<path d="M30.5 258.5C11.3 258.5 2.83333 273.833 1 281.5V369.5L280.503 369.419C281.17 352.876 282.097 314.967 280.5 295C279.925 287.813 276.578 282.047 272 277.515C263.838 269.436 251.761 265.281 244.5 264C181.167 262.167 49.7 258.5 30.5 258.5Z" fill="url(#paint24_linear_80_28)"/>
<path d="M1 245.5C7.33333 234.333 29.4 212.2 67 213C87.6137 213.439 128.906 214.498 170 215.586C169.067 211.059 166.866 207.257 164 204.104C157.033 196.438 146.141 192.603 140 191.5L1 184.5V245.5Z" fill="url(#paint25_linear_80_28)"/>
<path d="M1 155C5 153 17.8 149.3 37 150.5C45.2276 151.014 65.8688 152.159 90 153.47C89.4504 150.276 87.9823 147.491 86 145.098C80.7683 138.783 71.9557 135.194 67 134L1 131V155Z" fill="#710303"/>
<path d="M1 184.5L140 191.5C146.141 192.603 157.033 196.438 164 204.104C165.333 199.736 169.6 189.7 176 184.5C183.915 178.069 198.64 168.213 200.832 170.909C195.642 163.786 188.598 159.879 184 158.5C169.886 157.754 150.343 156.716 130 155.626C116.572 154.907 102.796 154.165 90 153.47C65.8688 152.159 45.2276 151.014 37 150.5C17.8 149.3 5 153 1 155V184.5Z" fill="url(#paint26_linear_80_28)"/>
<path d="M97 106L1 101V131L67 134C71.9557 135.194 80.7683 138.783 86 145.098C89.8035 135.399 101.419 116.3 117.455 117.5C112.771 110.997 102.738 107.247 97 106Z" fill="#AE0202"/>
<path d="M120 155V125C120 122.183 119.03 119.686 117.455 117.5C101.419 116.3 89.8035 135.399 86 145.098C87.9823 147.491 89.4504 150.276 90 153.47C102.796 154.165 116.572 154.907 130 155.626C130.667 153.584 133.6 149.5 140 149.5C146.4 149.5 229.333 153.584 270 155.626C275.667 155.917 287.7 160 290.5 174H321V145.5C321 134.7 306.333 129 299 127.5C263.333 125.833 186.4 122.3 164 121.5C141.6 120.7 130 143.5 127 155H120Z" fill="#AE0202"/>
<path d="M170 215.586C182.025 215.904 194.032 216.225 205.5 216.533L205.958 216.546C206.292 214.461 206.799 208.544 207.5 195C208.035 184.656 205.078 176.777 200.898 171L200.832 170.909C198.64 168.213 183.915 178.069 176 184.5C169.6 189.7 165.333 199.736 164 204.104C166.866 207.257 169.067 211.059 170 215.586Z" fill="#660624"/>
<path d="M200.898 171C205.078 176.777 208.035 184.656 207.5 195C206.799 208.544 206.292 214.461 205.958 216.546C211.627 216.698 217.162 216.847 222.5 216.992V198C223.5 190 234.8 174 272 174H290.5C287.7 160 275.667 155.917 270 155.626C229.333 153.584 146.4 149.5 140 149.5C133.6 149.5 130.667 153.584 130 155.626C150.343 156.716 169.886 157.754 184 158.5C188.598 159.879 195.642 163.786 200.832 170.909C200.855 170.938 200.877 170.968 200.898 171Z" fill="#710303"/>
<path fill-rule="evenodd" clip-rule="evenodd" d="M1188.5 185.5H1200C1206.9 185.756 1216.56 186.831 1226 189.165C1241.17 192.916 1255.77 199.918 1257.5 212C1259.75 227.734 1260.21 232.786 1260.14 233.681C1260.78 233.666 1261.43 233.651 1262.08 233.635C1265.08 233.565 1268.05 233.495 1271 233.426C1282.17 233.164 1292.95 232.914 1303 232.683C1314.01 232.43 1324.16 232.199 1333 232C1352.67 236.796 1392.2 251.01 1393 269.5C1393.74 286.589 1391.97 335.392 1390.78 362.816C1391.37 347.649 1391.88 321.505 1390.5 302.5C1388.9 280.5 1364.5 274.333 1352.5 274C1291.33 275.5 1162.3 278.8 1135.5 280C1119.58 280.713 1108.28 288.165 1101 296.195C1099.5 289.964 1094.7 275.9 1087.5 269.5C1080.3 263.1 1067.75 257.5 1062.38 255.5C1069.64 246.462 1080.69 238.65 1096.5 238C1116.68 237.171 1190.07 235.339 1255.5 233.791C1251.9 219.223 1239.33 216.527 1233.5 217C1192.17 218 1104.1 220.2 1082.5 221C1060.9 221.8 1052.83 240.333 1051.5 249.5V277.5L1041.5 369.199L1029 369.202V297.5C1029 282.477 1025.62 271.262 1020.59 263C1020.73 253.167 1021.5 229.9 1023.5 215.5C1025.5 201.1 1050.25 192.5 1062.38 190L1183 185.696L1188.5 185.5Z" fill="url(#paint27_linear_80_28)"/>
<path d="M1271 233.426L1273 204C1274.23 200.776 1276.97 196.246 1281.5 191.809C1288.68 184.777 1300.33 177.981 1317.5 177C1343.37 175.522 1378.34 175.068 1396 175.007C1394.17 172.172 1388.9 166.5 1382.5 166.5C1374.5 166.5 1281.5 168.5 1257.5 169.5C1245.06 170.018 1236.57 175.507 1231.45 181C1228.67 183.986 1226.88 186.974 1226 189.165C1241.17 192.916 1255.77 199.918 1257.5 212C1259.75 227.734 1260.21 232.786 1260.14 233.681L1262.08 233.635C1265.08 233.565 1268.05 233.495 1271 233.426Z" fill="#7B0101"/>
<path d="M1 281.5C2.83333 273.833 11.3 258.5 30.5 258.5C49.7 258.5 181.167 262.167 244.5 264C251.761 265.281 263.838 269.436 272 277.515M1 281.5V369.5L280.503 369.419M1 281.5V245.5M280.5 369.5C280.501 369.473 280.502 369.446 280.503 369.419M120 125C120 136.2 120 149.667 120 155M120 125C120 122.183 119.03 119.686 117.455 117.5M120 125V155M120 155H127C130 143.5 141.6 120.7 164 121.5C186.4 122.3 263.333 125.833 299 127.5C306.333 129 321 134.7 321 145.5M321 145.5C321 156.3 321 169 321 174M321 145.5V174M321 174H334.5M321 174H290.5M334.5 174V161C338.5 153.5 352.2 138.6 375 139C397.8 139.4 467.167 141.5 499 142.5C504.897 143.329 514.115 146.053 521.315 151.5M334.5 174L339.5 174.23M334.5 174C330.131 174 315.941 174 290.5 174M749.5 203.5L748 181.5C747.446 173.37 743.029 167.274 737.5 162.887M749.5 203.5L760 197.5M749.5 203.5C741.1 208.3 738 217.167 737.5 221V242.09M760 197.5V178C762.01 173.345 767.07 165.734 775 160.796M760 197.5C762.249 196.6 766.653 195.094 771 194.209M791.5 156C809.1 156 898.833 156 941.5 156M791.5 156C785.073 156 779.562 157.956 775 160.796M791.5 156H941.5M941.5 156C945.131 156.983 950.411 159.135 955.094 162.5M965.5 197.5V180C965.5 172.355 960.729 166.549 955.094 162.5M965.5 197.5C968.333 199 974.5 202.5 976.5 204.5M965.5 197.5C961.5 195.243 956.167 194.893 954 195M976.5 204.5L978.5 178C978.915 175.511 980.146 172.229 982.5 168.863M976.5 204.5C981.333 208.248 991.1 221.119 991.5 242.622M1188.5 175C1188.5 159.8 1162.83 152 1150 150C1117.83 150.667 1046.4 152.2 1018 153C998.435 153.551 987.713 161.411 982.5 168.863M1188.5 175C1188.5 190.2 1188.5 188.333 1188.5 185.5M1188.5 175V185.5M1188.5 185.5H1200M1188.5 185.5L1183 185.696M1200 185.5L1202 166.5C1202.67 163.348 1204.66 158.895 1208.5 154.647M1200 185.5C1206.9 185.756 1216.56 186.831 1226 189.165M1400 175C1398.79 175 1397.46 175.002 1396 175.007M1400 175C1400.12 177.46 1400.27 179.623 1400.21 175M1400 175H1400.21M1413 175V146.5C1413.43 143.877 1415.08 140.085 1418.63 136.5M1413 175H1443.25M1413 175H1400.21M1603 155.5C1599.8 130.3 1577.33 122 1566.5 121C1535.67 122.333 1468.2 125.3 1445 126.5C1431.67 127.19 1423.42 131.656 1418.63 136.5M1603 155.5H1610M1603 155.5L1600.5 155.695M1610 155.5V125C1611.04 122.86 1613.31 119.856 1617 116.938M1610 155.5C1618.56 155.061 1629.48 154.513 1641 153.951M1 245.5C7.33333 234.333 29.4 212.2 67 213C87.6137 213.439 128.906 214.498 170 215.586M1 245.5V184.5M330 369.405C327 337.437 320.5 268.7 318.5 249.5C318.052 245.204 315.794 241.378 312.347 238M330 369.405L342 369.401M330 369.405L280.503 369.419M272 277.515C276.578 282.047 279.925 287.813 280.5 295C282.097 314.967 281.17 352.876 280.503 369.419M272 277.515C274 272.343 279.8 259.5 287 249.5C294.2 239.5 306.898 237.667 312.347 238M312.347 238C300.388 226.28 274.119 219.941 259.5 218C250.666 217.757 239.911 217.463 228 217.141M342 369.401V297.5M342 369.401L635.5 369.316M342 297.5C343.333 289.833 352.5 274.5 378.5 274.5C404.5 274.5 529 278.167 588 280C596.837 280.106 611.523 283.137 621.5 292.612M342 297.5V267C349.333 254.333 372.9 229.1 408.5 229.5C413.883 229.56 421.223 229.736 430 230M635.5 369.316C635.167 363.044 634 343.5 632 315.5C631.278 305.387 627.141 297.969 621.5 292.612M635.5 369.316L681.5 369.303M681.5 369.303L694 369.299M681.5 369.303C680.502 359.071 678.914 343.532 677.141 327.5M621.5 292.612C623 287.408 627.2 276 632 272C638 267 645.084 262 662.042 257.5M662.042 257.5C651.153 246.346 632.191 240.065 621.5 238C586.935 236.359 527.727 233.67 479 231.751M662.042 257.5C666.091 261.648 669.024 266.47 670 272C672.061 283.679 674.766 306.032 677.141 327.5M706.5 369.296V312C706.689 306.812 709.675 298.687 718.323 292.612M706.5 369.296L1018 369.206M706.5 369.296L694 369.299M749.5 284.5C783.1 284.5 918.833 284.5 982.5 284.5M749.5 284.5C734.917 284.5 724.955 287.953 718.323 292.612M749.5 284.5H982.5M982.5 284.5C988.075 285.521 996.275 288.11 1003.39 292.612M1018 315.5C1018 335.1 1018 359.47 1018 369.206M1018 315.5C1018 305.133 1011.38 297.667 1003.39 292.612M1018 315.5V369.206M1018 369.206L1029 369.202M694 369.299V280C695.333 273.833 699.208 264.533 706.5 256.675M1029 297.5C1029 341.5 1029 363.635 1029 369.202M1029 297.5C1029 282.477 1025.62 271.262 1020.59 263M1029 297.5V369.202M1029 369.202L1041.5 369.199M718.323 292.612C716.382 284.643 712.4 265.285 712 251.603M712 251.603C709.984 253.184 708.154 254.892 706.5 256.675M712 251.603C715.06 249.204 718.548 247.098 722.5 245.474M1003.39 292.612C1007.54 285.741 1015.55 268.6 1014.42 255M1014.42 255C1016.64 257.292 1018.73 259.944 1020.59 263M1014.42 255C1010.24 250.694 1005.57 247.661 1001 245.614M1091.5 369.184V311.5C1092.92 307.44 1096.02 301.683 1101 296.195M1091.5 369.184L1390.5 369.098M1091.5 369.184L1041.5 369.199M1390.5 369.098L1405 369.094M1390.5 369.098C1390.59 367.167 1390.68 365.063 1390.78 362.816M1390.5 369.098C1390.59 367.324 1390.69 365.206 1390.78 362.816M1041.5 369.199L1051.5 277.5M1051.5 277.5C1052.8 271.691 1056.23 263.156 1062.38 255.5M1051.5 277.5V249.5C1052.83 240.333 1060.9 221.8 1082.5 221C1104.1 220.2 1192.17 218 1233.5 217C1239.33 216.527 1251.9 219.223 1255.5 233.791M1062.38 255.5C1069.64 246.462 1080.69 238.65 1096.5 238C1116.68 237.171 1190.07 235.339 1255.5 233.791M1062.38 255.5C1067.75 257.5 1080.3 263.1 1087.5 269.5C1094.7 275.9 1099.5 289.964 1101 296.195M1101 296.195C1108.28 288.165 1119.58 280.713 1135.5 280C1162.3 278.8 1291.33 275.5 1352.5 274C1364.5 274.333 1388.9 280.5 1390.5 302.5C1391.88 321.505 1391.37 347.649 1390.78 362.816M1454 369.079L1728 369V269.5M1454 369.079V293.5C1455.31 289.292 1458.5 283.309 1464 277.683M1454 369.079L1405 369.094M1728 269.5C1726 262.7 1712.83 259 1706.5 258C1651.5 259 1533.7 261.2 1502.5 262C1484.21 262.469 1471.79 269.717 1464 277.683M1728 269.5V234M1405 369.094L1415.5 255.5C1416.54 250.967 1419.6 244.628 1425.5 238.5M1728 234C1712.8 219.2 1691.33 214.5 1682.5 214C1654.6 214.647 1607.93 215.744 1564.5 216.798M1728 234V185.5M1425.5 238.5C1434.79 228.855 1451.08 219.734 1477.5 219C1485.57 218.776 1496.01 218.502 1508 218.197M1425.5 238.5C1431.34 241 1444.4 247.2 1450 252C1455.6 256.8 1461.67 271.122 1464 277.683M1 184.5L140 191.5C146.141 192.603 157.033 196.438 164 204.104M1 184.5V155M170 215.586C182.025 215.904 194.032 216.225 205.5 216.533M170 215.586C169.067 211.059 166.866 207.257 164 204.104M1 155C5 153 17.8 149.3 37 150.5C45.2276 151.014 65.8688 152.159 90 153.47M1 155V131M205.5 216.533C205.5 216.533 205.72 218.031 205.958 216.546M205.5 216.533C205.5 216.533 205.805 216.541 205.958 216.546M205.5 216.533L205.958 216.546M164 204.104C165.333 199.736 169.6 189.7 176 184.5C183.915 178.069 198.64 168.213 200.832 170.909M200.898 171C205.078 176.777 208.035 184.656 207.5 195C206.799 208.544 206.292 214.461 205.958 216.546M200.898 171C200.877 170.968 200.855 170.938 200.832 170.909M200.898 171C200.876 170.969 200.854 170.939 200.832 170.909M200.898 171L200.832 170.909M228 217.141C229.167 213.76 236.1 207 254.5 207C272.9 207 362.167 209.333 404.5 210.5C409.795 211.676 419.126 215.129 425 221.138M228 217.141C226.192 217.092 224.358 217.042 222.5 216.992M228 217.141L222.5 216.992M430 230C439.269 230.278 450.14 230.655 462 231.098M430 230C429.294 226.588 427.447 223.641 425 221.138M222.5 216.992V198C223.5 190 234.8 174 272 174M222.5 216.992C217.162 216.847 211.627 216.698 205.958 216.546M272 174C278.725 174 284.886 174 290.5 174M272 174H290.5M462 231.098V214.5C461.243 204.815 457.076 197.449 451.5 191.951M462 231.098C466.534 231.267 471.212 231.447 476 231.634M425 221.138C426.667 216.425 431.5 205.8 437.5 201C443.5 196.2 449.333 192.968 451.5 191.951M451.5 191.951C442.338 182.918 429.375 178.933 421.5 178L339.5 174.23M479 231.751C480.667 226.834 488.8 216.9 508 216.5C527.2 216.1 611 218.333 650.5 219.5C656.068 220.715 664.981 224.475 671.032 231.634M479 231.751C477.995 231.712 476.995 231.672 476 231.634M677.141 327.5C677.094 309.833 677.1 269.6 677.5 250C677.657 242.305 674.942 236.26 671.032 231.634M476 231.634L477.5 210.5C479.948 203.699 488.724 191.348 506 187.036M706.5 227.5C706.5 255.5 706.5 258.617 706.5 256.675M706.5 227.5C706.5 215.856 702.292 207.555 696.5 201.771M706.5 227.5V256.675M671.032 231.634C671.855 228.089 674.8 219.7 680 214.5C685.2 209.3 693.167 203.847 696.5 201.771M696.5 201.771C688.365 193.646 677.107 190.487 670 190C640.507 188.88 585.367 186.924 548.5 186.004M749.5 241.823C745.411 241.874 742.038 241.932 739.5 242C738.825 242.018 738.158 242.048 737.5 242.09M749.5 241.823C751.833 236.549 760.6 225.9 777 225.5C793.4 225.1 904.167 225.333 957.5 225.5C961.833 226.639 971.7 231.525 976.5 241.958M749.5 241.823C791.742 241.303 910.478 241.659 976.5 241.958M976.5 241.958C979.622 241.972 982.627 241.986 985.5 242C987.304 242.021 989.331 242.214 991.5 242.622M737.5 242.09C731.89 242.448 726.906 243.662 722.5 245.474M954 195C897.333 194.5 782.6 193.5 777 193.5C775.178 193.5 773.096 193.782 771 194.209M954 195C953.459 191.575 951.612 188.97 949.41 187.064M991.5 242.622C994.474 243.181 997.713 244.143 1001 245.614M1255.5 233.791C1257 233.755 1258.5 233.72 1260 233.684M1255.5 233.791L1260 233.684M1020.59 263C1020.73 253.167 1021.5 229.9 1023.5 215.5C1025.5 201.1 1050.25 192.5 1062.38 190L1183 185.696M1257.5 212C1255.77 199.918 1241.17 192.916 1226 189.165M1257.5 212L1260 233.684M1257.5 212C1259.75 227.734 1260.21 232.786 1260.14 233.681M1257.5 212C1259.75 227.737 1260.21 232.788 1260.14 233.681M1260 233.684L1260.14 233.681M1260 233.684C1260.05 233.683 1260.09 233.682 1260.14 233.681M1260 233.684C1260.07 233.869 1260.12 233.9 1260.14 233.681M1303 232.683C1314.01 232.43 1324.16 232.199 1333 232C1352.67 236.796 1392.2 251.01 1393 269.5C1393.74 286.589 1391.97 335.392 1390.78 362.816M1303 232.683C1292.95 232.914 1282.17 233.164 1271 233.426M1303 232.683C1303.91 230.228 1305.85 226.917 1309 223.582M1508 218.197C1504.4 210.754 1494.83 207.964 1490.5 207.5C1451.67 208 1367.7 209.2 1342.5 210C1325.86 210.528 1315.13 217.099 1309 223.582M1508 218.197C1510.28 218.139 1512.61 218.079 1515 218.019M1271 233.426L1273 204C1274.23 200.776 1276.97 196.246 1281.5 191.809M1271 233.426C1268.05 233.495 1265.08 233.565 1262.08 233.635M1271 233.426L1262.08 233.635M1515 218.019L1513.5 207.5C1509.5 181.5 1485.17 175 1473.5 175H1443.25M1515 218.019C1519.35 217.91 1523.86 217.797 1528.5 217.681M1564.5 216.798C1552.06 217.1 1539.89 217.398 1528.5 217.681M1564.5 216.798C1565.27 213.438 1567.45 208.459 1571.5 203.96M1728 185.5C1691.5 187.667 1613.6 192.3 1594 193.5C1583.46 194.145 1576.21 198.729 1571.5 203.96M1728 185.5V155.5M1528.5 217.681C1528.5 209.121 1528.5 190.7 1528.5 185.5M1528.5 217.681V185.5M1528.5 185.5C1528.5 181.918 1527.74 174.997 1533.5 169.002M1728 155.5C1725.5 154.167 1719.2 151.4 1714 151C1710.17 150.705 1673.2 152.381 1641 153.951M1728 155.5V132.5M1281.5 191.809C1288.68 184.777 1300.33 177.981 1317.5 177C1343.37 175.522 1378.34 175.068 1396 175.007M1281.5 191.809C1286.67 194.706 1297.6 201.2 1300 204C1303 207.5 1306.5 214.677 1309 223.582M1533.5 169.002C1538.19 164.117 1547.21 159.847 1564.5 158.5L1600.5 155.695M1533.5 169.002C1540.17 171.835 1555.1 179.1 1561.5 185.5C1567.9 191.9 1570.83 200.473 1571.5 203.96M1641 153.951C1641.99 152.217 1643.53 149.948 1645.5 147.596M1728 132.5V103.5C1709.67 104.5 1667.5 106.7 1645.5 107.5C1632.06 107.989 1622.79 112.358 1617 116.938M1728 132.5C1711.67 133.167 1676.2 134.7 1665 135.5C1657.14 136.062 1650.13 142.059 1645.5 147.596M1617 116.938C1622.17 118.459 1633.8 123.7 1639 132.5C1644.2 141.3 1645.5 146.231 1645.5 147.596M1418.63 136.5C1423.33 138 1433.8 142.1 1438 146.5C1442.2 150.9 1446.63 160.667 1448.33 165M1443.25 175C1443.74 172.338 1445.28 168.608 1448.33 165M1600.5 155.695C1598.5 150.251 1592.33 148.963 1589.5 149C1561 150.167 1498.3 152.7 1475.5 153.5C1461.58 153.988 1453.1 159.346 1448.33 165M1226 189.165C1226.88 186.974 1228.67 183.986 1231.45 181M1396 175.007C1394.17 172.172 1388.9 166.5 1382.5 166.5C1374.5 166.5 1281.5 168.5 1257.5 169.5C1245.06 170.018 1236.57 175.507 1231.45 181M1396 175.007L1400.21 175M1208.5 154.647C1214.2 148.337 1223.96 142.478 1239.5 142C1265.5 141.2 1335 140 1366.5 139.5C1377.5 141.167 1399.6 148.6 1400 165C1400.12 169.875 1400.18 173.045 1400.21 175M1208.5 154.647C1213.17 156.431 1223.2 161.3 1226 166.5C1228.8 171.7 1230.8 178.333 1231.45 181M1001 245.614L1003.39 204.5C1004.34 200.688 1006.94 194.888 1011.62 190M1183 185.696C1178.6 179.453 1172.17 177.964 1169.5 178C1131 178.667 1049.5 180.2 1031.5 181C1022.65 181.393 1016.16 185.27 1011.62 190M982.5 168.863C986.667 168.242 996.2 168.1 1001 172.5C1005.8 176.9 1010.08 186 1011.62 190M771 194.209C771.68 192.303 773.565 189.426 777 187.064M791.5 183C804.7 183 897 183 941.5 183M791.5 183C785.032 183 780.3 184.794 777 187.064M791.5 183H941.5M941.5 183C943.514 183.458 946.726 184.741 949.41 187.064M777 187.064C774.667 181.74 771 169.033 775 160.796M949.41 187.064C951.67 182.709 955.97 171.7 955.094 162.5M548.5 186.004C551.333 183.503 559.6 178.1 570 176.5C580.4 174.9 661.333 178.167 700.5 180C704.339 181.161 710.264 184.005 715 188.672M548.5 186.004C542.621 185.858 537.207 185.738 532.436 185.651M722.5 245.474C722.667 238.149 722.9 219.8 722.5 205C722.314 198.129 719.104 192.716 715 188.672M715 188.672C719 182.373 729.1 168.397 737.5 162.887M737.5 162.887C731.06 157.777 723.112 154.986 718 154C688.333 152.833 621.6 150.3 592 149.5C562.4 148.7 548.333 164.167 545 172V185.5H532.438M339.5 174.23C342.5 171.32 350.8 165.5 360 165.5C369.2 165.5 447.833 168.833 486 170.5C489.627 171.329 495.228 173.318 499.581 176.5M506 187.036C509.893 186.064 514.218 185.5 519 185.5C522.4 185.5 526.818 185.551 532.017 185.644M506 187.036C506 182.672 503.229 179.167 499.581 176.5M499.581 176.5C504.097 168.833 514.766 153.1 521.315 151.5M521.315 151.5C527.139 155.906 531.642 162.093 532 170.5C532.36 178.956 532.463 183.413 532.438 185.5M130 155.626C150.343 156.716 169.886 157.754 184 158.5C188.598 159.879 195.642 163.786 200.832 170.909M130 155.626C130.667 153.584 133.6 149.5 140 149.5C146.4 149.5 229.333 153.584 270 155.626C275.667 155.917 287.7 160 290.5 174M130 155.626C116.572 154.907 102.796 154.165 90 153.47M1 131V101L97 106C102.738 107.247 112.771 110.997 117.455 117.5M1 131L67 134C71.9557 135.194 80.7683 138.783 86 145.098M90 153.47C89.4504 150.276 87.9823 147.491 86 145.098M86 145.098C89.8035 135.399 101.419 116.3 117.455 117.5M532.438 185.5C532.438 185.552 532.437 185.602 532.436 185.651M532.438 185.5H532C532.006 185.549 532.011 185.597 532.017 185.644M532.436 185.651C532.399 187.937 532.193 187.086 532.017 185.644M532.436 185.651C532.296 185.649 532.156 185.646 532.017 185.644M1260.14 233.681C1260.78 233.666 1261.43 233.651 1262.08 233.635M1260.14 233.681L1262.08 233.635" stroke="url(#paint28_linear_80_28)"/>
<rect x="1" y="204" width="1728" height="165" fill="url(#paint29_linear_80_28)"/>
<defs>
<linearGradient id="paint0_linear_80_28" x1="865" y1="0" x2="865" y2="369" gradientUnits="userSpaceOnUse">
<stop stop-color="#2D2D2D" stop-opacity="0"/>
<stop offset="0.201448" stop-opacity="0.32"/>
<stop offset="0.358934" stop-opacity="0.52"/>
<stop offset="0.663044" stop-opacity="0.81"/>
</linearGradient>
<linearGradient id="paint1_linear_80_28" x1="864.5" y1="101" x2="864.5" y2="369.5" gradientUnits="userSpaceOnUse">
<stop offset="0.34"/>
<stop offset="0.99" stop-color="#9C0505"/>
</linearGradient>
<linearGradient id="paint2_linear_80_28" x1="864.5" y1="101" x2="864.5" y2="369.5" gradientUnits="userSpaceOnUse">
<stop offset="0.29" stop-color="#D90523"/>
<stop offset="0.825" stop-color="#4C010C"/>
</linearGradient>
<linearGradient id="paint3_linear_80_28" x1="864.5" y1="101" x2="864.5" y2="369.5" gradientUnits="userSpaceOnUse">
<stop stop-color="#B2061E"/>
<stop offset="1" stop-color="#5E0512"/>
</linearGradient>
<linearGradient id="paint4_linear_80_28" x1="864.5" y1="101" x2="864.5" y2="369.5" gradientUnits="userSpaceOnUse">
<stop stop-color="#720414"/>
<stop offset="1" stop-color="#7F0012"/>
</linearGradient>
<linearGradient id="paint5_linear_80_28" x1="864.5" y1="101" x2="864.5" y2="369.5" gradientUnits="userSpaceOnUse">
<stop stop-color="#D8001E"/>
<stop offset="1" stop-color="#45010A"/>
</linearGradient>
<linearGradient id="paint6_linear_80_28" x1="864.5" y1="101" x2="864.5" y2="369.5" gradientUnits="userSpaceOnUse">
<stop stop-color="#A30000"/>
<stop offset="1" stop-color="#4D0000"/>
</linearGradient>
<linearGradient id="paint7_linear_80_28" x1="864.5" y1="101" x2="864.5" y2="369.5" gradientUnits="userSpaceOnUse">
<stop/>
<stop offset="1" stop-color="#A40303"/>
</linearGradient>
<linearGradient id="paint8_linear_80_28" x1="864.5" y1="101" x2="864.5" y2="369.5" gradientUnits="userSpaceOnUse">
<stop offset="0.4" stop-color="#8F0519"/>
<stop offset="1" stop-color="#670000"/>
</linearGradient>
<linearGradient id="paint9_linear_80_28" x1="864.5" y1="101" x2="864.5" y2="369.5" gradientUnits="userSpaceOnUse">
<stop offset="0.565" stop-color="#7C0101"/>
<stop offset="1" stop-color="#B20000"/>
</linearGradient>
<linearGradient id="paint10_linear_80_28" x1="864.5" y1="101" x2="864.5" y2="369.5" gradientUnits="userSpaceOnUse">
<stop stop-color="#BE0404"/>
<stop offset="0.645" stop-color="#780000"/>
</linearGradient>
<linearGradient id="paint11_linear_80_28" x1="864.5" y1="101" x2="864.5" y2="369.5" gradientUnits="userSpaceOnUse">
<stop stop-color="#980000"/>
<stop offset="1" stop-color="#7B0202"/>
</linearGradient>
<linearGradient id="paint12_linear_80_28" x1="864.5" y1="101" x2="864.5" y2="369.5" gradientUnits="userSpaceOnUse">
<stop stop-color="#B2080B"/>
<stop offset="0.9" stop-color="#610002"/>
</linearGradient>
<linearGradient id="paint13_linear_80_28" x1="864.5" y1="101" x2="864.5" y2="369.5" gradientUnits="userSpaceOnUse">
<stop offset="0.32" stop-color="#FF0A0F"/>
<stop offset="0.6" stop-color="#650406"/>
</linearGradient>
<linearGradient id="paint14_linear_80_28" x1="864.5" y1="101" x2="864.5" y2="369.5" gradientUnits="userSpaceOnUse">
<stop offset="0.675" stop-color="#620000"/>
<stop offset="1" stop-color="#AF0606"/>
</linearGradient>
<linearGradient id="paint15_linear_80_28" x1="864.5" y1="101" x2="864.5" y2="369.5" gradientUnits="userSpaceOnUse">
<stop stop-color="#2A0000"/>
<stop offset="1" stop-color="#B90404"/>
</linearGradient>
<linearGradient id="paint16_linear_80_28" x1="864.5" y1="101" x2="864.5" y2="369.5" gradientUnits="userSpaceOnUse">
<stop offset="0.59" stop-color="#740101"/>
<stop offset="1" stop-color="#FF0E0E"/>
</linearGradient>
<linearGradient id="paint17_linear_80_28" x1="864.5" y1="101" x2="864.5" y2="369.5" gradientUnits="userSpaceOnUse">
<stop offset="0.26" stop-color="#FF0025"/>
<stop offset="0.65" stop-color="#6B0110"/>
</linearGradient>
<linearGradient id="paint18_linear_80_28" x1="864.5" y1="101" x2="864.5" y2="369.5" gradientUnits="userSpaceOnUse">
<stop stop-color="#971B1B"/>
<stop offset="1" stop-color="#340000"/>
</linearGradient>
<linearGradient id="paint19_linear_80_28" x1="864.5" y1="101" x2="864.5" y2="369.5" gradientUnits="userSpaceOnUse">
<stop offset="0.255"/>
<stop offset="1" stop-color="#8B0404"/>
</linearGradient>
<linearGradient id="paint20_linear_80_28" x1="864.5" y1="101" x2="864.5" y2="369.5" gradientUnits="userSpaceOnUse">
<stop stop-color="#CD0020"/>
<stop offset="0.345" stop-color="#870303"/>
</linearGradient>
<linearGradient id="paint21_linear_80_28" x1="864.5" y1="101" x2="864.5" y2="369.5" gradientUnits="userSpaceOnUse">
<stop stop-color="#4E0000"/>
<stop offset="0.82" stop-color="#8E0000"/>
</linearGradient>
<linearGradient id="paint22_linear_80_28" x1="864.5" y1="101" x2="864.5" y2="369.5" gradientUnits="userSpaceOnUse">
<stop stop-color="#C20909"/>
<stop offset="1" stop-color="#430202"/>
</linearGradient>
<linearGradient id="paint23_linear_80_28" x1="864.5" y1="101" x2="864.5" y2="369.5" gradientUnits="userSpaceOnUse">
<stop offset="0.33" stop-color="#B8001B"/>
<stop offset="0.965" stop-color="#380009"/>
</linearGradient>
<linearGradient id="paint24_linear_80_28" x1="864.5" y1="101" x2="864.5" y2="369.5" gradientUnits="userSpaceOnUse">
<stop offset="0.14"/>
<stop offset="1" stop-color="#8D0505"/>
</linearGradient>
<linearGradient id="paint25_linear_80_28" x1="864.5" y1="101" x2="864.5" y2="369.5" gradientUnits="userSpaceOnUse">
<stop stop-color="#6C0101"/>
<stop offset="1" stop-color="#840808"/>
</linearGradient>
<linearGradient id="paint26_linear_80_28" x1="864.5" y1="101" x2="864.5" y2="369.5" gradientUnits="userSpaceOnUse">
<stop stop-color="#9B0609"/>
<stop offset="0.61" stop-color="#7B0000"/>
</linearGradient>
<linearGradient id="paint27_linear_80_28" x1="864.5" y1="101" x2="864.5" y2="369.5" gradientUnits="userSpaceOnUse">
<stop offset="0.285" stop-color="#CC0202"/>
<stop offset="0.55" stop-color="#8B0000"/>
</linearGradient>
<linearGradient id="paint28_linear_80_28" x1="864.5" y1="101" x2="864.5" y2="369.5" gradientUnits="userSpaceOnUse">
<stop stop-color="#750000"/>
<stop offset="1" stop-color="#5F0101"/>
</linearGradient>
<linearGradient id="paint29_linear_80_28" x1="865" y1="204" x2="865" y2="369" gradientUnits="userSpaceOnUse">
<stop stop-color="#2D2D2D" stop-opacity="0"/>
<stop offset="0.12" stop-opacity="0.32"/>
<stop offset="0.37" stop-opacity="0.36"/>
<stop offset="0.663044" stop-opacity="0.45"/>
</linearGradient>
</defs>
</svg>
