<svg width="1728" height="270" viewBox="0 0 1728 270" fill="none" xmlns="http://www.w3.org/2000/svg">
<path d="M705.5 212V269.296L1017 269.206V215.5C1017 205.133 1010.38 197.667 1002.39 192.612C995.275 188.11 987.075 185.521 981.5 184.5H748.5C733.917 184.5 723.955 187.953 717.323 192.612C708.675 198.687 705.689 206.812 705.5 212Z" fill="url(#paint0_linear_55_26)"/>
<path d="M748.5 184.5H981.5C987.075 185.521 995.275 188.11 1002.39 192.612C1006.54 185.741 1014.55 168.6 1013.42 155C1009.24 150.694 1004.57 147.661 1000 145.614C996.713 144.143 993.474 143.181 990.5 142.622C988.331 142.214 986.304 142.021 984.5 142C981.627 141.986 978.622 141.972 975.5 141.958C909.478 141.659 790.742 141.303 748.5 141.823C744.411 141.874 741.038 141.932 738.5 142C737.825 142.018 737.158 142.048 736.5 142.09C730.89 142.448 725.906 143.662 721.5 145.474C717.548 147.098 714.06 149.204 711 151.603C711.4 165.285 715.382 184.643 717.323 192.612C723.955 187.953 733.917 184.5 748.5 184.5Z" fill="url(#paint1_linear_55_26)"/>
<path d="M1017 215.5V269.206L1028 269.202V197.5C1028 182.477 1024.62 171.262 1019.59 163C1017.73 159.944 1015.64 157.292 1013.42 155C1014.55 168.6 1006.54 185.741 1002.39 192.612C1010.38 197.667 1017 205.133 1017 215.5Z" fill="url(#paint2_linear_55_26)"/>
<path d="M705.5 269.296V212C705.689 206.812 708.675 198.687 717.323 192.612C715.382 184.643 711.4 165.285 711 151.603C708.984 153.184 707.154 154.892 705.5 156.675C698.208 164.533 694.333 173.833 693 180V269.299L705.5 269.296Z" fill="url(#paint3_linear_55_26)"/>
<path d="M1090.5 269.184V211.5C1091.92 207.44 1095.02 201.683 1100 196.195C1098.5 189.964 1093.7 175.9 1086.5 169.5C1079.3 163.1 1066.75 157.5 1061.38 155.5C1055.23 163.156 1051.8 171.691 1050.5 177.5L1040.5 269.199L1090.5 269.184Z" fill="url(#paint4_linear_55_26)"/>
<path d="M1050.5 177.5C1051.8 171.691 1055.23 163.156 1061.38 155.5C1068.64 146.462 1079.69 138.65 1095.5 138C1115.68 137.171 1189.07 135.339 1254.5 133.791C1250.9 119.223 1238.33 116.527 1232.5 117C1191.17 118 1103.1 120.2 1081.5 121C1059.9 121.8 1051.83 140.333 1050.5 149.5V177.5Z" fill="url(#paint5_linear_55_26)"/>
<path d="M1090.5 211.5V269.184L1389.5 269.098C1389.59 267.167 1389.68 265.063 1389.78 262.816C1390.37 247.649 1390.88 221.505 1389.5 202.5C1387.9 180.5 1363.5 174.333 1351.5 174C1290.33 175.5 1161.3 178.8 1134.5 180C1118.58 180.713 1107.28 188.165 1100 196.195C1095.02 201.683 1091.92 207.44 1090.5 211.5Z" fill="url(#paint6_linear_55_26)"/>
<path d="M1453 269.079V193.5C1454.31 189.292 1457.5 183.309 1463 177.683C1460.67 171.122 1454.6 156.8 1449 152C1443.4 147.2 1430.34 141 1424.5 138.5C1418.6 144.628 1415.54 150.967 1414.5 155.5L1404 269.094L1453 269.079Z" fill="url(#paint7_linear_55_26)"/>
<path d="M1332 132C1351.67 136.796 1391.2 151.01 1392 169.5C1392.74 186.589 1390.97 235.392 1389.78 262.816C1389.69 265.206 1389.59 267.324 1389.5 269.098L1404 269.094L1414.5 155.5C1415.54 150.967 1418.6 144.628 1424.5 138.5C1433.79 128.855 1450.08 119.734 1476.5 119C1484.57 118.776 1495.01 118.502 1507 118.197C1503.4 110.754 1493.83 107.964 1489.5 107.5C1450.67 108 1366.7 109.2 1341.5 110C1324.86 110.528 1314.13 117.099 1308 123.582C1304.85 126.917 1302.91 130.228 1302 132.683C1313.01 132.43 1323.16 132.199 1332 132Z" fill="url(#paint8_linear_55_26)"/>
<path d="M1399.21 75C1399.27 79.6229 1399.12 77.4596 1399 75C1397.79 75 1396.46 75.0023 1395 75.0073C1377.34 75.0679 1342.37 75.5219 1316.5 77C1299.33 77.981 1287.68 84.7768 1280.5 91.8089C1285.67 94.7059 1296.6 101.2 1299 104C1302 107.5 1305.5 114.677 1308 123.582C1314.13 117.099 1324.86 110.528 1341.5 110C1366.7 109.2 1450.67 108 1489.5 107.5C1493.83 107.964 1503.4 110.754 1507 118.197C1509.28 118.139 1511.61 118.079 1514 118.019L1512.5 107.5C1508.5 81.5 1484.17 75 1472.5 75H1442.25H1412H1399.21Z" fill="url(#paint9_linear_55_26)"/>
<path d="M1270 133.426C1281.17 133.164 1291.95 132.914 1302 132.683C1302.91 130.228 1304.85 126.917 1308 123.582C1305.5 114.677 1302 107.5 1299 104C1296.6 101.2 1285.67 94.7059 1280.5 91.8089C1275.97 96.2455 1273.23 100.776 1272 104L1270 133.426Z" fill="url(#paint10_linear_55_26)"/>
<path d="M1365.5 39.5C1334 40 1264.5 41.2 1238.5 42C1222.96 42.4781 1213.2 48.3372 1207.5 54.6469C1212.17 56.4312 1222.2 61.3 1225 66.5C1227.8 71.7 1229.8 78.3333 1230.45 81C1235.57 75.5069 1244.06 70.0183 1256.5 69.5C1280.5 68.5 1373.5 66.5 1381.5 66.5C1387.9 66.5 1393.17 72.1715 1395 75.0073C1396.46 75.0023 1397.79 75 1399 75H1399.21C1399.18 73.0446 1399.12 69.8749 1399 65C1398.6 48.6 1376.5 41.1667 1365.5 39.5Z" fill="#980303"/>
<path d="M1201 66.5L1199 85.5C1205.9 85.7557 1215.56 86.8306 1225 89.1648C1225.88 86.9737 1227.67 83.9862 1230.45 81C1229.8 78.3333 1227.8 71.7 1225 66.5C1222.2 61.3 1212.17 56.4312 1207.5 54.6469C1203.66 58.8953 1201.67 63.348 1201 66.5Z" fill="#98070A"/>
<path d="M1412 46.5V75H1442.25C1442.74 72.338 1444.28 68.6085 1447.33 65C1445.63 60.6667 1441.2 50.9 1437 46.5C1432.8 42.1 1422.33 38 1417.63 36.5C1414.08 40.085 1412.43 43.8773 1412 46.5Z" fill="#98070A"/>
<path d="M1565.5 21C1534.67 22.3333 1467.2 25.3 1444 26.5C1430.67 27.1896 1422.42 31.6555 1417.63 36.5C1422.33 38 1432.8 42.1 1437 46.5C1441.2 50.9 1445.63 60.6667 1447.33 65C1452.1 59.3457 1460.58 53.9883 1474.5 53.5C1497.3 52.7 1560 50.1667 1588.5 49C1591.33 48.9632 1597.5 50.2506 1599.5 55.6948L1602 55.5C1598.8 30.3 1576.33 22 1565.5 21Z" fill="#9B0303"/>
<path d="M1472.5 75C1484.17 75 1508.5 81.5 1512.5 107.5L1514 118.019C1518.35 117.91 1522.86 117.797 1527.5 117.681V85.5C1527.5 81.9185 1526.74 74.9973 1532.5 69.0023C1537.19 64.1171 1546.21 59.847 1563.5 58.5L1599.5 55.6948C1597.5 50.2506 1591.33 48.9632 1588.5 49C1560 50.1667 1497.3 52.7 1474.5 53.5C1460.58 53.9883 1452.1 59.3457 1447.33 65C1444.28 68.6085 1442.74 72.338 1442.25 75H1472.5Z" fill="#7B0101"/>
<path d="M1527.5 117.681C1538.89 117.398 1551.06 117.1 1563.5 116.798C1564.27 113.438 1566.45 108.459 1570.5 103.96C1569.83 100.473 1566.9 91.9 1560.5 85.5C1554.1 79.1 1539.17 71.8348 1532.5 69.0023C1526.74 74.9973 1527.5 81.9185 1527.5 85.5V117.681Z" fill="#740209"/>
<path d="M1609 55.5H1602L1599.5 55.6948L1563.5 58.5C1546.21 59.847 1537.19 64.1171 1532.5 69.0023C1539.17 71.8348 1554.1 79.1 1560.5 85.5C1566.9 91.9 1569.83 100.473 1570.5 103.96C1575.21 98.7292 1582.46 94.1451 1593 93.5C1612.6 92.3 1690.5 87.6667 1727 85.5V55.5C1724.5 54.1667 1718.2 51.4 1713 51C1709.17 50.7054 1672.2 52.3815 1640 53.9511C1628.48 54.5127 1617.56 55.0608 1609 55.5Z" fill="url(#paint11_linear_55_26)"/>
<path d="M1501.5 162C1532.7 161.2 1650.5 159 1705.5 158C1711.83 159 1725 162.7 1727 169.5V134C1711.8 119.2 1690.33 114.5 1681.5 114C1653.6 114.647 1606.93 115.744 1563.5 116.798C1551.06 117.1 1538.89 117.398 1527.5 117.681C1522.86 117.797 1518.35 117.91 1514 118.019C1511.61 118.079 1509.28 118.139 1507 118.197C1495.01 118.502 1484.57 118.776 1476.5 119C1450.08 119.734 1433.79 128.855 1424.5 138.5C1430.34 141 1443.4 147.2 1449 152C1454.6 156.8 1460.67 171.122 1463 177.683C1470.79 169.717 1483.21 162.469 1501.5 162Z" fill="url(#paint12_linear_55_26)"/>
<path d="M1681.5 114C1690.33 114.5 1711.8 119.2 1727 134V85.5C1690.5 87.6667 1612.6 92.3 1593 93.5C1582.46 94.1451 1575.21 98.7292 1570.5 103.96C1566.45 108.459 1564.27 113.438 1563.5 116.798C1606.93 115.744 1653.6 114.647 1681.5 114Z" fill="#7B0101"/>
<path d="M1453 269.079L1727 269V169.5C1725 162.7 1711.83 159 1705.5 158C1650.5 159 1532.7 161.2 1501.5 162C1483.21 162.469 1470.79 169.717 1463 177.683C1457.5 183.309 1454.31 189.292 1453 193.5V269.079Z" fill="url(#paint13_linear_55_26)"/>
<path d="M1713 51C1718.2 51.4 1724.5 54.1667 1727 55.5V32.5C1710.67 33.1667 1675.2 34.7 1664 35.5C1656.14 36.0615 1649.13 42.0587 1644.5 47.596C1642.53 49.9479 1640.99 52.2169 1640 53.9511C1672.2 52.3815 1709.17 50.7054 1713 51Z" fill="#7B0101"/>
<path d="M1609 25V55.5C1617.56 55.0608 1628.48 54.5127 1640 53.9511C1640.99 52.2169 1642.53 49.9479 1644.5 47.596C1644.5 46.2306 1643.2 41.3 1638 32.5C1632.8 23.7 1621.17 18.4589 1616 16.9384C1612.31 19.8563 1610.04 22.8597 1609 25Z" fill="#98070A"/>
<path d="M1727 3.5C1708.67 4.5 1666.5 6.7 1644.5 7.5C1631.06 7.98869 1621.79 12.3581 1616 16.9384C1621.17 18.4589 1632.8 23.7 1638 32.5C1643.2 41.3 1644.5 46.2306 1644.5 47.596C1649.13 42.0587 1656.14 36.0615 1664 35.5C1675.2 34.7 1710.67 33.1667 1727 32.5V3.5Z" fill="#B2080B"/>
<path d="M1149 50C1116.83 50.6667 1045.4 52.2 1017 53C997.435 53.5511 986.713 61.4109 981.5 68.8635C985.667 68.2423 995.2 68.1 1000 72.5C1004.8 76.9 1009.08 86 1010.62 90C1015.16 85.2697 1021.65 81.3934 1030.5 81C1048.5 80.2 1130 78.6667 1168.5 78C1171.17 77.9642 1177.6 79.4532 1182 85.6962L1187.5 85.5V75C1187.5 59.8 1161.83 52 1149 50Z" fill="#AE0202"/>
<path d="M1013.42 155C1015.64 157.292 1017.73 159.944 1019.59 163C1019.73 153.167 1020.5 129.9 1022.5 115.5C1024.5 101.1 1049.25 92.5 1061.38 90L1182 85.6962C1177.6 79.4532 1171.17 77.9642 1168.5 78C1130 78.6667 1048.5 80.2 1030.5 81C1021.65 81.3934 1015.16 85.2697 1010.62 90C1005.94 94.8882 1003.34 100.688 1002.39 104.5L1000 145.614C1004.57 147.661 1009.24 150.694 1013.42 155Z" fill="#710303"/>
<path d="M977.5 78L975.5 104.5C980.333 108.248 990.1 121.119 990.5 142.622C993.474 143.181 996.713 144.143 1000 145.614L1002.39 104.5C1003.34 100.688 1005.94 94.8882 1010.62 90C1009.08 86 1004.8 76.9 1000 72.5C995.2 68.1 985.667 68.2423 981.5 68.8635C979.146 72.2289 977.915 75.5112 977.5 78Z" fill="#98070A"/>
<path d="M759 97.5L748.5 103.5C740.1 108.3 737 117.167 736.5 121V142.09C737.158 142.048 737.825 142.018 738.5 142C741.038 141.932 744.411 141.874 748.5 141.823C750.833 136.549 759.6 125.9 776 125.5C792.4 125.1 903.167 125.333 956.5 125.5C960.833 126.639 970.7 131.525 975.5 141.958C978.622 141.972 981.627 141.986 984.5 142C986.304 142.021 988.331 142.214 990.5 142.622C990.1 121.119 980.333 108.248 975.5 104.5C973.5 102.5 967.333 99 964.5 97.5C960.5 95.243 955.167 94.8929 953 95C896.333 94.5 781.6 93.5 776 93.5C774.178 93.5 772.096 93.7822 770 94.2088C765.653 95.0938 761.249 96.6004 759 97.5Z" fill="#8C0116"/>
<path d="M776 125.5C759.6 125.9 750.833 136.549 748.5 141.823C790.742 141.303 909.478 141.659 975.5 141.958C970.7 131.525 960.833 126.639 956.5 125.5C903.167 125.333 792.4 125.1 776 125.5Z" fill="url(#paint14_linear_55_26)"/>
<path d="M776 93.5C781.6 93.5 896.333 94.5 953 95C952.459 91.5753 950.612 88.9696 948.41 87.064C945.726 84.7406 942.514 83.4578 940.5 83H790.5C784.032 83 779.3 84.7943 776 87.064C772.565 89.4262 770.68 92.3034 770 94.2088C772.096 93.7822 774.178 93.5 776 93.5Z" fill="#720303"/>
<path d="M940.5 56H790.5C784.073 56 778.562 57.9558 774 60.7961C770 69.033 773.667 81.7401 776 87.064C779.3 84.7943 784.032 83 790.5 83H940.5C942.514 83.4578 945.726 84.7406 948.41 87.064C950.67 82.7093 954.97 71.7 954.094 62.5C949.411 59.1346 944.131 56.9835 940.5 56Z" fill="#AE0202"/>
<path d="M964.5 97.5V80C964.5 72.3549 959.729 66.5487 954.094 62.5C954.97 71.7 950.67 82.7093 948.41 87.064C950.612 88.9696 952.459 91.5753 953 95C955.167 94.8929 960.5 95.243 964.5 97.5Z" fill="#67010F"/>
<path d="M759 78V97.5C761.249 96.6004 765.653 95.0938 770 94.2088C770.68 92.3034 772.565 89.4262 776 87.064C773.667 81.7401 770 69.033 774 60.7961C766.07 65.7338 761.01 73.3446 759 78Z" fill="#67010F"/>
<path d="M748.5 103.5L747 81.5C746.446 73.3698 742.029 67.2739 736.5 62.887C728.1 68.3967 718 82.3727 714 88.6721C718.104 92.7162 721.314 98.1289 721.5 105C721.9 119.8 721.667 138.149 721.5 145.474C725.906 143.662 730.89 142.448 736.5 142.09V121C737 117.167 740.1 108.3 748.5 103.5Z" fill="#67010F"/>
<path d="M531.438 85.5C531.438 85.5519 531.437 85.6024 531.436 85.6514C536.207 85.7376 541.621 85.8578 547.5 86.0044C550.333 83.5029 558.6 78.1 569 76.5C579.4 74.9 660.333 78.1667 699.5 80C703.339 81.1608 709.264 84.0053 714 88.6721C718 82.3727 728.1 68.3967 736.5 62.887C730.06 57.7774 722.112 54.9864 717 54C687.333 52.8333 620.6 50.3 591 49.5C561.4 48.7 547.333 64.1667 544 72V85.5H531.438Z" fill="#AE0202"/>
<path d="M705.5 156.675C707.154 154.892 708.984 153.184 711 151.603C714.06 149.204 717.548 147.098 721.5 145.474C721.667 138.149 721.9 119.8 721.5 105C721.314 98.1289 718.104 92.7162 714 88.6721C709.264 84.0053 703.339 81.1608 699.5 80C660.333 78.1667 579.4 74.9 569 76.5C558.6 78.1 550.333 83.5029 547.5 86.0044C584.367 86.9237 639.507 88.88 669 90C676.107 90.4868 687.365 93.6463 695.5 101.771C701.292 107.555 705.5 115.856 705.5 127.5V156.675Z" fill="#710303"/>
<path d="M478 131.751C479.667 126.834 487.8 116.9 507 116.5C526.2 116.1 610 118.333 649.5 119.5C655.068 120.715 663.981 124.475 670.032 131.634C670.855 128.089 673.8 119.7 679 114.5C684.2 109.3 692.167 103.847 695.5 101.771C687.365 93.6463 676.107 90.4868 669 90C639.507 88.88 584.367 86.9237 547.5 86.0044C541.621 85.8578 536.207 85.7376 531.436 85.6514C531.399 87.9371 531.193 87.0864 531.017 85.6439C525.818 85.5513 521.4 85.5 518 85.5C513.218 85.5 508.893 86.0637 505 87.0356C487.724 91.3485 478.948 103.699 476.5 110.5L475 131.634C475.995 131.672 476.995 131.712 478 131.751Z" fill="#870404"/>
<path d="M680.5 269.303L693 269.299V180C694.333 173.833 698.208 164.533 705.5 156.675V127.5C705.5 115.856 701.292 107.555 695.5 101.771C692.167 103.847 684.2 109.3 679 114.5C673.8 119.7 670.855 128.089 670.032 131.634C673.942 136.26 676.657 142.305 676.5 150C676.1 169.6 676.094 209.833 676.141 227.5C677.914 243.532 679.502 259.071 680.5 269.303Z" fill="#660624"/>
<path d="M620.5 138C631.191 140.065 650.153 146.346 661.042 157.5C665.091 161.648 668.024 166.47 669 172C671.061 183.679 673.766 206.032 676.141 227.5C676.094 209.833 676.1 169.6 676.5 150C676.657 142.305 673.942 136.26 670.032 131.634C663.981 124.475 655.068 120.715 649.5 119.5C610 118.333 526.2 116.1 507 116.5C487.8 116.9 479.667 126.834 478 131.751C526.727 133.67 585.935 136.359 620.5 138Z" fill="url(#paint15_linear_55_26)"/>
<path d="M341 197.5C342.333 189.833 351.5 174.5 377.5 174.5C403.5 174.5 528 178.167 587 180C595.837 180.106 610.523 183.137 620.5 192.612C622 187.408 626.2 176 631 172C637 167 644.084 162 661.042 157.5C650.153 146.346 631.191 140.065 620.5 138C585.935 136.359 526.727 133.67 478 131.751C476.995 131.712 475.995 131.672 475 131.634C470.212 131.447 465.534 131.267 461 131.098C449.14 130.655 438.269 130.278 429 130C420.223 129.736 412.883 129.56 407.5 129.5C371.9 129.1 348.333 154.333 341 167V197.5Z" fill="url(#paint16_linear_55_26)"/>
<path d="M631 215.5C633 243.5 634.167 263.044 634.5 269.316L680.5 269.303C679.502 259.071 677.914 243.532 676.141 227.5C673.766 206.032 671.061 183.679 669 172C668.024 166.47 665.091 161.648 661.042 157.5C644.084 162 637 167 631 172C626.2 176 622 187.408 620.5 192.612C626.141 197.969 630.278 205.387 631 215.5Z" fill="url(#paint17_linear_55_26)"/>
<path d="M341 197.5V269.401L634.5 269.316C634.167 263.044 633 243.5 631 215.5C630.278 205.387 626.141 197.969 620.5 192.612C610.523 183.137 595.837 180.106 587 180C528 178.167 403.5 174.5 377.5 174.5C351.5 174.5 342.333 189.833 341 197.5Z" fill="url(#paint18_linear_55_26)"/>
<path d="M429 130C438.269 130.278 449.14 130.655 461 131.098V114.5C460.243 104.815 456.076 97.4486 450.5 91.9515C448.333 92.9677 442.5 96.2 436.5 101C430.5 105.8 425.667 116.425 424 121.138C426.447 123.641 428.294 126.588 429 130Z" fill="#660624"/>
<path d="M461 114.5V131.098C465.534 131.267 470.212 131.447 475 131.634L476.5 110.5C478.948 103.699 487.724 91.3485 505 87.0356C505 82.6718 502.229 79.1667 498.581 76.5C494.228 73.3175 488.627 71.3291 485 70.5C446.833 68.8333 368.2 65.5 359 65.5C349.8 65.5 341.5 71.3199 338.5 74.2299L420.5 78C428.375 78.9325 441.338 82.9183 450.5 91.9515C456.076 97.4486 460.243 104.815 461 114.5Z" fill="#710303"/>
<path d="M505 87.0356C508.893 86.0637 513.218 85.5 518 85.5C521.4 85.5 525.818 85.5513 531.017 85.6439C531.011 85.5965 531.006 85.5485 531 85.5H531.438C531.463 83.4131 531.36 78.9561 531 70.5C530.642 62.0931 526.139 55.9058 520.315 51.5C513.766 53.1 503.097 68.8333 498.581 76.5C502.229 79.1667 505 82.6718 505 87.0356Z" fill="#67010F"/>
<path d="M333.5 61V74L338.5 74.2299C341.5 71.3199 349.8 65.5 359 65.5C368.2 65.5 446.833 68.8333 485 70.5C488.627 71.3291 494.228 73.3175 498.581 76.5C503.097 68.8333 513.766 53.1 520.315 51.5C513.115 46.0533 503.897 43.3292 498 42.5C466.167 41.5 396.8 39.4 374 39C351.2 38.6 337.5 53.5 333.5 61Z" fill="#AE0202"/>
<path d="M333.5 74H320H289.5H271C233.8 74 222.5 90 221.5 98V116.992L227 117.141C228.167 113.76 235.1 107 253.5 107C271.9 107 361.167 109.333 403.5 110.5C408.795 111.676 418.126 115.129 424 121.138C425.667 116.425 430.5 105.8 436.5 101C442.5 96.2 448.333 92.9677 450.5 91.9515C441.338 82.9183 428.375 78.9325 420.5 78L338.5 74.2299L333.5 74Z" fill="url(#paint19_linear_55_26)"/>
<path d="M317.5 149.5C319.5 168.7 326 237.437 329 269.405L341 269.401V197.5V167C348.333 154.333 371.9 129.1 407.5 129.5C412.883 129.56 420.223 129.736 429 130C428.294 126.588 426.447 123.641 424 121.138C418.126 115.129 408.795 111.676 403.5 110.5C361.167 109.333 271.9 107 253.5 107C235.1 107 228.167 113.76 227 117.141C238.911 117.463 249.666 117.757 258.5 118C273.119 119.941 299.388 126.28 311.347 138C314.794 141.378 317.052 145.204 317.5 149.5Z" fill="url(#paint20_linear_55_26)"/>
<path d="M279.5 195C281.097 214.967 280.17 252.876 279.503 269.419L329 269.405C326 237.437 319.5 168.7 317.5 149.5C317.052 145.204 314.794 141.378 311.347 138C305.898 137.667 293.2 139.5 286 149.5C278.8 159.5 273 172.343 271 177.515C275.578 182.047 278.925 187.813 279.5 195Z" fill="url(#paint21_linear_55_26)"/>
<path d="M0 181.5C1.83333 173.833 10.3 158.5 29.5 158.5C48.7 158.5 180.167 162.167 243.5 164C250.761 165.281 262.838 169.436 271 177.515C273 172.343 278.8 159.5 286 149.5C293.2 139.5 305.898 137.667 311.347 138C299.388 126.28 273.119 119.941 258.5 118C249.666 117.757 238.911 117.463 227 117.141L221.5 116.992C216.162 116.847 210.627 116.698 204.958 116.546C204.72 118.031 204.5 116.533 204.5 116.533C193.032 116.225 181.025 115.904 169 115.586C127.906 114.498 86.6137 113.439 66 113C28.4 112.2 6.33333 134.333 0 145.5V181.5Z" fill="url(#paint22_linear_55_26)"/>
<path d="M29.5 158.5C10.3 158.5 1.83333 173.833 0 181.5V269.5L279.503 269.419C280.17 252.876 281.097 214.967 279.5 195C278.925 187.813 275.578 182.047 271 177.515C262.838 169.436 250.761 165.281 243.5 164C180.167 162.167 48.7 158.5 29.5 158.5Z" fill="url(#paint23_linear_55_26)"/>
<path d="M0 145.5C6.33333 134.333 28.4 112.2 66 113C86.6137 113.439 127.906 114.498 169 115.586C168.067 111.059 165.866 107.257 163 104.104C156.033 96.4379 145.141 92.6034 139 91.5L0 84.5V145.5Z" fill="url(#paint24_linear_55_26)"/>
<path d="M0 55C4 53 16.8 49.3 36 50.5C44.2276 51.0142 64.8688 52.1589 89 53.4698C88.4504 50.2757 86.9823 47.4913 85 45.0983C79.7683 38.7826 70.9557 35.1941 66 34L0 31V55Z" fill="#710303"/>
<path d="M0 84.5L139 91.5C145.141 92.6034 156.033 96.4379 163 104.104C164.333 99.7358 168.6 89.7 175 84.5C182.915 78.0693 197.64 68.2127 199.832 70.9085C194.642 63.786 187.598 59.8795 183 58.5C168.886 57.7541 149.343 56.7159 129 55.6261C115.572 54.9067 101.796 54.1649 89 53.4698C64.8688 52.1589 44.2276 51.0142 36 50.5C16.8 49.3 4 53 0 55V84.5Z" fill="url(#paint25_linear_55_26)"/>
<path d="M96 6L0 1V31L66 34C70.9557 35.1941 79.7683 38.7826 85 45.0983C88.8035 35.3989 100.419 16.3 116.455 17.5C111.771 10.9969 101.738 7.2474 96 6Z" fill="#AE0202"/>
<path d="M119 55V25C119 22.1826 118.03 19.6857 116.455 17.5C100.419 16.3 88.8035 35.3989 85 45.0983C86.9823 47.4913 88.4504 50.2757 89 53.4698C101.796 54.1649 115.572 54.9067 129 55.6261C129.667 53.5841 132.6 49.5 139 49.5C145.4 49.5 228.333 53.5841 269 55.6261C274.667 55.9174 286.7 60 289.5 74H320V45.5C320 34.7 305.333 29 298 27.5C262.333 25.8333 185.4 22.3 163 21.5C140.6 20.7 129 43.5 126 55H119Z" fill="#AE0202"/>
<path d="M169 115.586C181.025 115.904 193.032 116.225 204.5 116.533L204.958 116.546C205.292 114.461 205.799 108.544 206.5 95C207.035 84.6562 204.078 76.7773 199.898 71L199.832 70.9085C197.64 68.2127 182.915 78.0693 175 84.5C168.6 89.7 164.333 99.7358 163 104.104C165.866 107.257 168.067 111.059 169 115.586Z" fill="#660624"/>
<path d="M199.898 71C204.078 76.7773 207.035 84.6562 206.5 95C205.799 108.544 205.292 114.461 204.958 116.546C210.627 116.698 216.162 116.847 221.5 116.992V98C222.5 90 233.8 74 271 74H289.5C286.7 60 274.667 55.9174 269 55.6261C228.333 53.5841 145.4 49.5 139 49.5C132.6 49.5 129.667 53.5841 129 55.6261C149.343 56.7159 168.886 57.7541 183 58.5C187.598 59.8795 194.642 63.786 199.832 70.9085C199.855 70.9376 199.877 70.968 199.898 71Z" fill="#710303"/>
<path fill-rule="evenodd" clip-rule="evenodd" d="M1187.5 85.5H1199C1205.9 85.7557 1215.56 86.8306 1225 89.1648C1240.17 92.9157 1254.77 99.9185 1256.5 112C1258.75 127.734 1259.21 132.786 1259.14 133.681C1259.78 133.666 1260.43 133.651 1261.08 133.635C1264.08 133.565 1267.05 133.495 1270 133.426C1281.17 133.164 1291.95 132.914 1302 132.683C1313.01 132.43 1323.16 132.199 1332 132C1351.67 136.796 1391.2 151.01 1392 169.5C1392.74 186.589 1390.97 235.392 1389.78 262.816C1390.37 247.649 1390.88 221.505 1389.5 202.5C1387.9 180.5 1363.5 174.333 1351.5 174C1290.33 175.5 1161.3 178.8 1134.5 180C1118.58 180.713 1107.28 188.165 1100 196.195C1098.5 189.964 1093.7 175.9 1086.5 169.5C1079.3 163.1 1066.75 157.5 1061.38 155.5C1068.64 146.462 1079.69 138.65 1095.5 138C1115.68 137.171 1189.07 135.339 1254.5 133.791C1250.9 119.223 1238.33 116.527 1232.5 117C1191.17 118 1103.1 120.2 1081.5 121C1059.9 121.8 1051.83 140.333 1050.5 149.5V177.5L1040.5 269.199L1028 269.202V197.5C1028 182.477 1024.62 171.262 1019.59 163C1019.73 153.167 1020.5 129.9 1022.5 115.5C1024.5 101.1 1049.25 92.5 1061.38 90L1182 85.6962L1187.5 85.5Z" fill="url(#paint26_linear_55_26)"/>
<path d="M1270 133.426L1272 104C1273.23 100.776 1275.97 96.2455 1280.5 91.8089C1287.68 84.7768 1299.33 77.981 1316.5 77C1342.37 75.5219 1377.34 75.0679 1395 75.0073C1393.17 72.1715 1387.9 66.5 1381.5 66.5C1373.5 66.5 1280.5 68.5 1256.5 69.5C1244.06 70.0183 1235.57 75.5069 1230.45 81C1227.67 83.9862 1225.88 86.9737 1225 89.1648C1240.17 92.9157 1254.77 99.9185 1256.5 112C1258.75 127.734 1259.21 132.786 1259.14 133.681L1261.08 133.635C1264.08 133.565 1267.05 133.495 1270 133.426Z" fill="#7B0101"/>
<path d="M0 181.5C1.83333 173.833 10.3 158.5 29.5 158.5C48.7 158.5 180.167 162.167 243.5 164C250.761 165.281 262.838 169.436 271 177.515M0 181.5V269.5L279.503 269.419M0 181.5V145.5M279.5 269.5C279.501 269.473 279.502 269.446 279.503 269.419M119 25C119 36.2 119 49.6667 119 55M119 25C119 22.1826 118.03 19.6857 116.455 17.5M119 25V55M119 55H126C129 43.5 140.6 20.7 163 21.5C185.4 22.3 262.333 25.8333 298 27.5C305.333 29 320 34.7 320 45.5M320 45.5C320 56.3 320 69 320 74M320 45.5V74M320 74H333.5M320 74H289.5M333.5 74V61C337.5 53.5 351.2 38.6 374 39C396.8 39.4 466.167 41.5 498 42.5C503.897 43.3292 513.115 46.0533 520.315 51.5M333.5 74L338.5 74.2299M333.5 74C329.131 74 314.941 74 289.5 74M748.5 103.5L747 81.5C746.446 73.3698 742.029 67.2739 736.5 62.887M748.5 103.5L759 97.5M748.5 103.5C740.1 108.3 737 117.167 736.5 121V142.09M759 97.5V78C761.01 73.3446 766.07 65.7338 774 60.7961M759 97.5C761.249 96.6004 765.653 95.0938 770 94.2088M790.5 56C808.1 56 897.833 56 940.5 56M790.5 56C784.073 56 778.562 57.9558 774 60.7961M790.5 56H940.5M940.5 56C944.131 56.9835 949.411 59.1346 954.094 62.5M964.5 97.5V80C964.5 72.3549 959.729 66.5487 954.094 62.5M964.5 97.5C967.333 99 973.5 102.5 975.5 104.5M964.5 97.5C960.5 95.243 955.167 94.8929 953 95M975.5 104.5L977.5 78C977.915 75.5112 979.146 72.2289 981.5 68.8635M975.5 104.5C980.333 108.248 990.1 121.119 990.5 142.622M1187.5 75C1187.5 59.8 1161.83 52 1149 50C1116.83 50.6667 1045.4 52.2 1017 53C997.435 53.5511 986.713 61.4109 981.5 68.8635M1187.5 75C1187.5 90.2 1187.5 88.3333 1187.5 85.5M1187.5 75V85.5M1187.5 85.5H1199M1187.5 85.5L1182 85.6962M1199 85.5L1201 66.5C1201.67 63.348 1203.66 58.8953 1207.5 54.6469M1199 85.5C1205.9 85.7557 1215.56 86.8306 1225 89.1648M1399 75C1397.79 75 1396.46 75.0023 1395 75.0073M1399 75C1399.12 77.4596 1399.27 79.6229 1399.21 75M1399 75H1399.21M1412 75V46.5C1412.43 43.8773 1414.08 40.085 1417.63 36.5M1412 75H1442.25M1412 75H1399.21M1602 55.5C1598.8 30.3 1576.33 22 1565.5 21C1534.67 22.3333 1467.2 25.3 1444 26.5C1430.67 27.1896 1422.42 31.6555 1417.63 36.5M1602 55.5H1609M1602 55.5L1599.5 55.6948M1609 55.5V25C1610.04 22.8597 1612.31 19.8563 1616 16.9384M1609 55.5C1617.56 55.0608 1628.48 54.5127 1640 53.9511M0 145.5C6.33333 134.333 28.4 112.2 66 113C86.6137 113.439 127.906 114.498 169 115.586M0 145.5V84.5M329 269.405C326 237.437 319.5 168.7 317.5 149.5C317.052 145.204 314.794 141.378 311.347 138M329 269.405L341 269.401M329 269.405L279.503 269.419M271 177.515C275.578 182.047 278.925 187.813 279.5 195C281.097 214.967 280.17 252.876 279.503 269.419M271 177.515C273 172.343 278.8 159.5 286 149.5C293.2 139.5 305.898 137.667 311.347 138M311.347 138C299.388 126.28 273.119 119.941 258.5 118C249.666 117.757 238.911 117.463 227 117.141M341 269.401V197.5M341 269.401L634.5 269.316M341 197.5C342.333 189.833 351.5 174.5 377.5 174.5C403.5 174.5 528 178.167 587 180C595.837 180.106 610.523 183.137 620.5 192.612M341 197.5V167C348.333 154.333 371.9 129.1 407.5 129.5C412.883 129.56 420.223 129.736 429 130M634.5 269.316C634.167 263.044 633 243.5 631 215.5C630.278 205.387 626.141 197.969 620.5 192.612M634.5 269.316L680.5 269.303M680.5 269.303L693 269.299M680.5 269.303C679.502 259.071 677.914 243.532 676.141 227.5M620.5 192.612C622 187.408 626.2 176 631 172C637 167 644.084 162 661.042 157.5M661.042 157.5C650.153 146.346 631.191 140.065 620.5 138C585.935 136.359 526.727 133.67 478 131.751M661.042 157.5C665.091 161.648 668.024 166.47 669 172C671.061 183.679 673.766 206.032 676.141 227.5M705.5 269.296V212C705.689 206.812 708.675 198.687 717.323 192.612M705.5 269.296L1017 269.206M705.5 269.296L693 269.299M748.5 184.5C782.1 184.5 917.833 184.5 981.5 184.5M748.5 184.5C733.917 184.5 723.955 187.953 717.323 192.612M748.5 184.5H981.5M981.5 184.5C987.075 185.521 995.275 188.11 1002.39 192.612M1017 215.5C1017 235.1 1017 259.47 1017 269.206M1017 215.5C1017 205.133 1010.38 197.667 1002.39 192.612M1017 215.5V269.206M1017 269.206L1028 269.202M693 269.299V180C694.333 173.833 698.208 164.533 705.5 156.675M1028 197.5C1028 241.5 1028 263.635 1028 269.202M1028 197.5C1028 182.477 1024.62 171.262 1019.59 163M1028 197.5V269.202M1028 269.202L1040.5 269.199M717.323 192.612C715.382 184.643 711.4 165.285 711 151.603M711 151.603C708.984 153.184 707.154 154.892 705.5 156.675M711 151.603C714.06 149.204 717.548 147.098 721.5 145.474M1002.39 192.612C1006.54 185.741 1014.55 168.6 1013.42 155M1013.42 155C1015.64 157.292 1017.73 159.944 1019.59 163M1013.42 155C1009.24 150.694 1004.57 147.661 1000 145.614M1090.5 269.184V211.5C1091.92 207.44 1095.02 201.683 1100 196.195M1090.5 269.184L1389.5 269.098M1090.5 269.184L1040.5 269.199M1389.5 269.098L1404 269.094M1389.5 269.098C1389.59 267.167 1389.68 265.063 1389.78 262.816M1389.5 269.098C1389.59 267.324 1389.69 265.206 1389.78 262.816M1040.5 269.199L1050.5 177.5M1050.5 177.5C1051.8 171.691 1055.23 163.156 1061.38 155.5M1050.5 177.5V149.5C1051.83 140.333 1059.9 121.8 1081.5 121C1103.1 120.2 1191.17 118 1232.5 117C1238.33 116.527 1250.9 119.223 1254.5 133.791M1061.38 155.5C1068.64 146.462 1079.69 138.65 1095.5 138C1115.68 137.171 1189.07 135.339 1254.5 133.791M1061.38 155.5C1066.75 157.5 1079.3 163.1 1086.5 169.5C1093.7 175.9 1098.5 189.964 1100 196.195M1100 196.195C1107.28 188.165 1118.58 180.713 1134.5 180C1161.3 178.8 1290.33 175.5 1351.5 174C1363.5 174.333 1387.9 180.5 1389.5 202.5C1390.88 221.505 1390.37 247.649 1389.78 262.816M1453 269.079L1727 269V169.5M1453 269.079V193.5C1454.31 189.292 1457.5 183.309 1463 177.683M1453 269.079L1404 269.094M1727 169.5C1725 162.7 1711.83 159 1705.5 158C1650.5 159 1532.7 161.2 1501.5 162C1483.21 162.469 1470.79 169.717 1463 177.683M1727 169.5V134M1404 269.094L1414.5 155.5C1415.54 150.967 1418.6 144.628 1424.5 138.5M1727 134C1711.8 119.2 1690.33 114.5 1681.5 114C1653.6 114.647 1606.93 115.744 1563.5 116.798M1727 134V85.5M1424.5 138.5C1433.79 128.855 1450.08 119.734 1476.5 119C1484.57 118.776 1495.01 118.502 1507 118.197M1424.5 138.5C1430.34 141 1443.4 147.2 1449 152C1454.6 156.8 1460.67 171.122 1463 177.683M0 84.5L139 91.5C145.141 92.6034 156.033 96.4379 163 104.104M0 84.5V55M169 115.586C181.025 115.904 193.032 116.225 204.5 116.533M169 115.586C168.067 111.059 165.866 107.257 163 104.104M0 55C4 53 16.8 49.3 36 50.5C44.2276 51.0142 64.8688 52.1589 89 53.4698M0 55V31M204.5 116.533C204.5 116.533 204.72 118.031 204.958 116.546M204.5 116.533C204.5 116.533 204.805 116.541 204.958 116.546M204.5 116.533L204.958 116.546M163 104.104C164.333 99.7358 168.6 89.7 175 84.5C182.915 78.0693 197.64 68.2127 199.832 70.9085M199.898 71C204.078 76.7773 207.035 84.6562 206.5 95C205.799 108.544 205.292 114.461 204.958 116.546M199.898 71C199.877 70.968 199.855 70.9376 199.832 70.9085M199.898 71C199.876 70.9695 199.854 70.939 199.832 70.9085M199.898 71L199.832 70.9085M227 117.141C228.167 113.76 235.1 107 253.5 107C271.9 107 361.167 109.333 403.5 110.5C408.795 111.676 418.126 115.129 424 121.138M227 117.141C225.192 117.092 223.358 117.042 221.5 116.992M227 117.141L221.5 116.992M429 130C438.269 130.278 449.14 130.655 461 131.098M429 130C428.294 126.588 426.447 123.641 424 121.138M221.5 116.992V98C222.5 90 233.8 74 271 74M221.5 116.992C216.162 116.847 210.627 116.698 204.958 116.546M271 74C277.725 74 283.886 74 289.5 74M271 74H289.5M461 131.098V114.5C460.243 104.815 456.076 97.4486 450.5 91.9515M461 131.098C465.534 131.267 470.212 131.447 475 131.634M424 121.138C425.667 116.425 430.5 105.8 436.5 101C442.5 96.2 448.333 92.9677 450.5 91.9515M450.5 91.9515C441.338 82.9183 428.375 78.9325 420.5 78L338.5 74.2299M478 131.751C479.667 126.834 487.8 116.9 507 116.5C526.2 116.1 610 118.333 649.5 119.5C655.068 120.715 663.981 124.475 670.032 131.634M478 131.751C476.995 131.712 475.995 131.672 475 131.634M676.141 227.5C676.094 209.833 676.1 169.6 676.5 150C676.657 142.305 673.942 136.26 670.032 131.634M475 131.634L476.5 110.5C478.948 103.699 487.724 91.3485 505 87.0356M705.5 127.5C705.5 155.5 705.5 158.617 705.5 156.675M705.5 127.5C705.5 115.856 701.292 107.555 695.5 101.771M705.5 127.5V156.675M670.032 131.634C670.855 128.089 673.8 119.7 679 114.5C684.2 109.3 692.167 103.847 695.5 101.771M695.5 101.771C687.365 93.6463 676.107 90.4868 669 90C639.507 88.88 584.367 86.9237 547.5 86.0044M748.5 141.823C744.411 141.874 741.038 141.932 738.5 142C737.825 142.018 737.158 142.048 736.5 142.09M748.5 141.823C750.833 136.549 759.6 125.9 776 125.5C792.4 125.1 903.167 125.333 956.5 125.5C960.833 126.639 970.7 131.525 975.5 141.958M748.5 141.823C790.742 141.303 909.478 141.659 975.5 141.958M975.5 141.958C978.622 141.972 981.627 141.986 984.5 142C986.304 142.021 988.331 142.214 990.5 142.622M736.5 142.09C730.89 142.448 725.906 143.662 721.5 145.474M953 95C896.333 94.5 781.6 93.5 776 93.5C774.178 93.5 772.096 93.7822 770 94.2088M953 95C952.459 91.5753 950.612 88.9696 948.41 87.064M990.5 142.622C993.474 143.181 996.713 144.143 1000 145.614M1254.5 133.791C1256 133.755 1257.5 133.72 1259 133.684M1254.5 133.791L1259 133.684M1019.59 163C1019.73 153.167 1020.5 129.9 1022.5 115.5C1024.5 101.1 1049.25 92.5 1061.38 90L1182 85.6962M1256.5 112C1254.77 99.9185 1240.17 92.9157 1225 89.1648M1256.5 112L1259 133.684M1256.5 112C1258.75 127.734 1259.21 132.786 1259.14 133.681M1256.5 112C1258.75 127.737 1259.21 132.788 1259.14 133.681M1259 133.684L1259.14 133.681M1259 133.684C1259.05 133.683 1259.09 133.682 1259.14 133.681M1259 133.684C1259.07 133.869 1259.12 133.9 1259.14 133.681M1302 132.683C1313.01 132.43 1323.16 132.199 1332 132C1351.67 136.796 1391.2 151.01 1392 169.5C1392.74 186.589 1390.97 235.392 1389.78 262.816M1302 132.683C1291.95 132.914 1281.17 133.164 1270 133.426M1302 132.683C1302.91 130.228 1304.85 126.917 1308 123.582M1507 118.197C1503.4 110.754 1493.83 107.964 1489.5 107.5C1450.67 108 1366.7 109.2 1341.5 110C1324.86 110.528 1314.13 117.099 1308 123.582M1507 118.197C1509.28 118.139 1511.61 118.079 1514 118.019M1270 133.426L1272 104C1273.23 100.776 1275.97 96.2455 1280.5 91.8089M1270 133.426C1267.05 133.495 1264.08 133.565 1261.08 133.635M1270 133.426L1261.08 133.635M1514 118.019L1512.5 107.5C1508.5 81.5 1484.17 75 1472.5 75H1442.25M1514 118.019C1518.35 117.91 1522.86 117.797 1527.5 117.681M1563.5 116.798C1551.06 117.1 1538.89 117.398 1527.5 117.681M1563.5 116.798C1564.27 113.438 1566.45 108.459 1570.5 103.96M1727 85.5C1690.5 87.6667 1612.6 92.3 1593 93.5C1582.46 94.1451 1575.21 98.7292 1570.5 103.96M1727 85.5V55.5M1527.5 117.681C1527.5 109.121 1527.5 90.7 1527.5 85.5M1527.5 117.681V85.5M1527.5 85.5C1527.5 81.9185 1526.74 74.9973 1532.5 69.0023M1727 55.5C1724.5 54.1667 1718.2 51.4 1713 51C1709.17 50.7054 1672.2 52.3815 1640 53.9511M1727 55.5V32.5M1280.5 91.8089C1287.68 84.7768 1299.33 77.981 1316.5 77C1342.37 75.5219 1377.34 75.0679 1395 75.0073M1280.5 91.8089C1285.67 94.7059 1296.6 101.2 1299 104C1302 107.5 1305.5 114.677 1308 123.582M1532.5 69.0023C1537.19 64.1171 1546.21 59.847 1563.5 58.5L1599.5 55.6948M1532.5 69.0023C1539.17 71.8348 1554.1 79.1 1560.5 85.5C1566.9 91.9 1569.83 100.473 1570.5 103.96M1640 53.9511C1640.99 52.2169 1642.53 49.9479 1644.5 47.596M1727 32.5V3.5C1708.67 4.5 1666.5 6.7 1644.5 7.5C1631.06 7.98869 1621.79 12.3581 1616 16.9384M1727 32.5C1710.67 33.1667 1675.2 34.7 1664 35.5C1656.14 36.0615 1649.13 42.0587 1644.5 47.596M1616 16.9384C1621.17 18.4589 1632.8 23.7 1638 32.5C1643.2 41.3 1644.5 46.2306 1644.5 47.596M1417.63 36.5C1422.33 38 1432.8 42.1 1437 46.5C1441.2 50.9 1445.63 60.6667 1447.33 65M1442.25 75C1442.74 72.338 1444.28 68.6085 1447.33 65M1599.5 55.6948C1597.5 50.2506 1591.33 48.9632 1588.5 49C1560 50.1667 1497.3 52.7 1474.5 53.5C1460.58 53.9883 1452.1 59.3457 1447.33 65M1225 89.1648C1225.88 86.9737 1227.67 83.9862 1230.45 81M1395 75.0073C1393.17 72.1715 1387.9 66.5 1381.5 66.5C1373.5 66.5 1280.5 68.5 1256.5 69.5C1244.06 70.0183 1235.57 75.5069 1230.45 81M1395 75.0073L1399.21 75M1207.5 54.6469C1213.2 48.3372 1222.96 42.4781 1238.5 42C1264.5 41.2 1334 40 1365.5 39.5C1376.5 41.1667 1398.6 48.6 1399 65C1399.12 69.8749 1399.18 73.0446 1399.21 75M1207.5 54.6469C1212.17 56.4312 1222.2 61.3 1225 66.5C1227.8 71.7 1229.8 78.3333 1230.45 81M1000 145.614L1002.39 104.5C1003.34 100.688 1005.94 94.8882 1010.62 90M1182 85.6962C1177.6 79.4532 1171.17 77.9642 1168.5 78C1130 78.6667 1048.5 80.2 1030.5 81C1021.65 81.3934 1015.16 85.2697 1010.62 90M981.5 68.8635C985.667 68.2423 995.2 68.1 1000 72.5C1004.8 76.9 1009.08 86 1010.62 90M770 94.2088C770.68 92.3034 772.565 89.4262 776 87.064M790.5 83C803.7 83 896 83 940.5 83M790.5 83C784.032 83 779.3 84.7943 776 87.064M790.5 83H940.5M940.5 83C942.514 83.4578 945.726 84.7406 948.41 87.064M776 87.064C773.667 81.7401 770 69.033 774 60.7961M948.41 87.064C950.67 82.7093 954.97 71.7 954.094 62.5M547.5 86.0044C550.333 83.5029 558.6 78.1 569 76.5C579.4 74.9 660.333 78.1667 699.5 80C703.339 81.1608 709.264 84.0053 714 88.6721M547.5 86.0044C541.621 85.8578 536.207 85.7376 531.436 85.6514M721.5 145.474C721.667 138.149 721.9 119.8 721.5 105C721.314 98.1289 718.104 92.7162 714 88.6721M714 88.6721C718 82.3727 728.1 68.3967 736.5 62.887M736.5 62.887C730.06 57.7774 722.112 54.9864 717 54C687.333 52.8333 620.6 50.3 591 49.5C561.4 48.7 547.333 64.1667 544 72V85.5H531.438M338.5 74.2299C341.5 71.3199 349.8 65.5 359 65.5C368.2 65.5 446.833 68.8333 485 70.5C488.627 71.3291 494.228 73.3175 498.581 76.5M505 87.0356C508.893 86.0637 513.218 85.5 518 85.5C521.4 85.5 525.818 85.5513 531.017 85.6439M505 87.0356C505 82.6718 502.229 79.1667 498.581 76.5M498.581 76.5C503.097 68.8333 513.766 53.1 520.315 51.5M520.315 51.5C526.139 55.9058 530.642 62.0931 531 70.5C531.36 78.9561 531.463 83.4131 531.438 85.5M129 55.6261C149.343 56.7159 168.886 57.7541 183 58.5C187.598 59.8795 194.642 63.786 199.832 70.9085M129 55.6261C129.667 53.5841 132.6 49.5 139 49.5C145.4 49.5 228.333 53.5841 269 55.6261C274.667 55.9174 286.7 60 289.5 74M129 55.6261C115.572 54.9067 101.796 54.1649 89 53.4698M0 31V1L96 6C101.738 7.2474 111.771 10.9969 116.455 17.5M0 31L66 34C70.9557 35.1941 79.7683 38.7826 85 45.0983M89 53.4698C88.4504 50.2757 86.9823 47.4913 85 45.0983M85 45.0983C88.8035 35.3989 100.419 16.3 116.455 17.5M531.438 85.5C531.438 85.5519 531.437 85.6024 531.436 85.6514M531.438 85.5H531C531.006 85.5485 531.011 85.5965 531.017 85.6439M531.436 85.6514C531.399 87.9371 531.193 87.0864 531.017 85.6439M531.436 85.6514C531.296 85.6488 531.156 85.6463 531.017 85.6439M1259.14 133.681C1259.78 133.666 1260.43 133.651 1261.08 133.635M1259.14 133.681L1261.08 133.635" stroke="url(#paint27_linear_55_26)"/>
<rect y="104" width="1728" height="165" fill="url(#paint28_linear_55_26)"/>
<defs>
<linearGradient id="paint0_linear_55_26" x1="863.5" y1="1" x2="863.5" y2="269.5" gradientUnits="userSpaceOnUse">
<stop offset="0.34"/>
<stop offset="0.99" stop-color="#9C0505"/>
</linearGradient>
<linearGradient id="paint1_linear_55_26" x1="863.5" y1="1" x2="863.5" y2="269.5" gradientUnits="userSpaceOnUse">
<stop offset="0.29" stop-color="#D90523"/>
<stop offset="0.825" stop-color="#4C010C"/>
</linearGradient>
<linearGradient id="paint2_linear_55_26" x1="863.5" y1="1" x2="863.5" y2="269.5" gradientUnits="userSpaceOnUse">
<stop stop-color="#B2061E"/>
<stop offset="1" stop-color="#5E0512"/>
</linearGradient>
<linearGradient id="paint3_linear_55_26" x1="863.5" y1="1" x2="863.5" y2="269.5" gradientUnits="userSpaceOnUse">
<stop stop-color="#720414"/>
<stop offset="1" stop-color="#7F0012"/>
</linearGradient>
<linearGradient id="paint4_linear_55_26" x1="863.5" y1="1" x2="863.5" y2="269.5" gradientUnits="userSpaceOnUse">
<stop stop-color="#D8001E"/>
<stop offset="1" stop-color="#45010A"/>
</linearGradient>
<linearGradient id="paint5_linear_55_26" x1="863.5" y1="1" x2="863.5" y2="269.5" gradientUnits="userSpaceOnUse">
<stop stop-color="#A30000"/>
<stop offset="1" stop-color="#4D0000"/>
</linearGradient>
<linearGradient id="paint6_linear_55_26" x1="863.5" y1="1" x2="863.5" y2="269.5" gradientUnits="userSpaceOnUse">
<stop/>
<stop offset="1" stop-color="#A40303"/>
</linearGradient>
<linearGradient id="paint7_linear_55_26" x1="863.5" y1="1" x2="863.5" y2="269.5" gradientUnits="userSpaceOnUse">
<stop offset="0.4" stop-color="#8F0519"/>
<stop offset="1" stop-color="#670000"/>
</linearGradient>
<linearGradient id="paint8_linear_55_26" x1="863.5" y1="1" x2="863.5" y2="269.5" gradientUnits="userSpaceOnUse">
<stop offset="0.565" stop-color="#7C0101"/>
<stop offset="1" stop-color="#B20000"/>
</linearGradient>
<linearGradient id="paint9_linear_55_26" x1="863.5" y1="1" x2="863.5" y2="269.5" gradientUnits="userSpaceOnUse">
<stop stop-color="#BE0404"/>
<stop offset="0.645" stop-color="#780000"/>
</linearGradient>
<linearGradient id="paint10_linear_55_26" x1="863.5" y1="1" x2="863.5" y2="269.5" gradientUnits="userSpaceOnUse">
<stop stop-color="#980000"/>
<stop offset="1" stop-color="#7B0202"/>
</linearGradient>
<linearGradient id="paint11_linear_55_26" x1="863.5" y1="1" x2="863.5" y2="269.5" gradientUnits="userSpaceOnUse">
<stop stop-color="#B2080B"/>
<stop offset="0.9" stop-color="#610002"/>
</linearGradient>
<linearGradient id="paint12_linear_55_26" x1="863.5" y1="1" x2="863.5" y2="269.5" gradientUnits="userSpaceOnUse">
<stop offset="0.32" stop-color="#FF0A0F"/>
<stop offset="0.6" stop-color="#650406"/>
</linearGradient>
<linearGradient id="paint13_linear_55_26" x1="863.5" y1="1" x2="863.5" y2="269.5" gradientUnits="userSpaceOnUse">
<stop offset="0.675" stop-color="#620000"/>
<stop offset="1" stop-color="#AF0606"/>
</linearGradient>
<linearGradient id="paint14_linear_55_26" x1="863.5" y1="1" x2="863.5" y2="269.5" gradientUnits="userSpaceOnUse">
<stop stop-color="#2A0000"/>
<stop offset="1" stop-color="#B90404"/>
</linearGradient>
<linearGradient id="paint15_linear_55_26" x1="863.5" y1="1" x2="863.5" y2="269.5" gradientUnits="userSpaceOnUse">
<stop offset="0.59" stop-color="#740101"/>
<stop offset="1" stop-color="#FF0E0E"/>
</linearGradient>
<linearGradient id="paint16_linear_55_26" x1="863.5" y1="1" x2="863.5" y2="269.5" gradientUnits="userSpaceOnUse">
<stop offset="0.26" stop-color="#FF0025"/>
<stop offset="0.65" stop-color="#6B0110"/>
</linearGradient>
<linearGradient id="paint17_linear_55_26" x1="863.5" y1="1" x2="863.5" y2="269.5" gradientUnits="userSpaceOnUse">
<stop stop-color="#971B1B"/>
<stop offset="1" stop-color="#340000"/>
</linearGradient>
<linearGradient id="paint18_linear_55_26" x1="863.5" y1="1" x2="863.5" y2="269.5" gradientUnits="userSpaceOnUse">
<stop offset="0.255"/>
<stop offset="1" stop-color="#8B0404"/>
</linearGradient>
<linearGradient id="paint19_linear_55_26" x1="863.5" y1="1" x2="863.5" y2="269.5" gradientUnits="userSpaceOnUse">
<stop stop-color="#CD0020"/>
<stop offset="0.345" stop-color="#870303"/>
</linearGradient>
<linearGradient id="paint20_linear_55_26" x1="863.5" y1="1" x2="863.5" y2="269.5" gradientUnits="userSpaceOnUse">
<stop stop-color="#4E0000"/>
<stop offset="0.82" stop-color="#8E0000"/>
</linearGradient>
<linearGradient id="paint21_linear_55_26" x1="863.5" y1="1" x2="863.5" y2="269.5" gradientUnits="userSpaceOnUse">
<stop stop-color="#C20909"/>
<stop offset="1" stop-color="#430202"/>
</linearGradient>
<linearGradient id="paint22_linear_55_26" x1="863.5" y1="1" x2="863.5" y2="269.5" gradientUnits="userSpaceOnUse">
<stop offset="0.33" stop-color="#B8001B"/>
<stop offset="0.965" stop-color="#380009"/>
</linearGradient>
<linearGradient id="paint23_linear_55_26" x1="863.5" y1="1" x2="863.5" y2="269.5" gradientUnits="userSpaceOnUse">
<stop offset="0.14"/>
<stop offset="1" stop-color="#8D0505"/>
</linearGradient>
<linearGradient id="paint24_linear_55_26" x1="863.5" y1="1" x2="863.5" y2="269.5" gradientUnits="userSpaceOnUse">
<stop stop-color="#6C0101"/>
<stop offset="1" stop-color="#840808"/>
</linearGradient>
<linearGradient id="paint25_linear_55_26" x1="863.5" y1="1" x2="863.5" y2="269.5" gradientUnits="userSpaceOnUse">
<stop stop-color="#9B0609"/>
<stop offset="0.61" stop-color="#7B0000"/>
</linearGradient>
<linearGradient id="paint26_linear_55_26" x1="863.5" y1="1" x2="863.5" y2="269.5" gradientUnits="userSpaceOnUse">
<stop offset="0.285" stop-color="#CC0202"/>
<stop offset="0.55" stop-color="#8B0000"/>
</linearGradient>
<linearGradient id="paint27_linear_55_26" x1="863.5" y1="1" x2="863.5" y2="269.5" gradientUnits="userSpaceOnUse">
<stop stop-color="#750000"/>
<stop offset="1" stop-color="#5F0101"/>
</linearGradient>
<linearGradient id="paint28_linear_55_26" x1="864" y1="104" x2="864" y2="269" gradientUnits="userSpaceOnUse">
<stop stop-color="#2D2D2D" stop-opacity="0"/>
<stop offset="0.12" stop-opacity="0.32"/>
<stop offset="0.37" stop-opacity="0.36"/>
<stop offset="0.663044" stop-opacity="0.45"/>
</linearGradient>
</defs>
</svg>
